<svg width="28" height="31" fill="none" xmlns="http://www.w3.org/2000/svg"><path d="M3.103 6.311c-.45.117-.906.574-1.041 1.044-.219.764.253 1.588 1.042 1.817.205.06 1.644.067 10.991.057l10.755-.012.261-.123c1.251-.586 1.116-2.378-.209-2.772-.202-.06-1.617-.068-10.922-.064-7.205.003-10.751.021-10.877.053m0 7.747c-.45.117-.906.574-1.041 1.044-.219.764.253 1.588 1.042 1.817.205.059 1.644.067 10.991.056l10.755-.012.261-.122c1.251-.587 1.116-2.379-.209-2.772-.202-.06-1.617-.068-10.922-.064-7.205.003-10.751.02-10.877.053m0 7.747c-.45.116-.906.574-1.041 1.044-.219.763.253 1.587 1.042 1.817.205.059 1.644.067 10.991.056l10.755-.012.261-.122c1.251-.587 1.116-2.379-.209-2.772-.202-.06-1.617-.069-10.922-.065-7.205.004-10.751.021-10.877.054" fill-rule="evenodd" fill="#000"/></svg>