<svg width="351" height="331" viewBox="0 0 351 331" fill="none" xmlns="http://www.w3.org/2000/svg" xmlns:xlink="http://www.w3.org/1999/xlink"><path d="M3.150 0.839 C 1.971 1.352,1.093 2.305,0.664 3.536 C 0.175 4.937,-0.000 47.705,0.000 165.661 C 0.000 338.314,-0.161 329.253,2.916 330.230 C 3.613 330.451,4.339 330.476,4.529 330.286 C 4.719 330.096,4.477 329.940,3.991 329.940 C 3.504 329.940,2.689 329.479,2.179 328.915 C 1.338 327.986,1.234 312.765,1.064 165.717 L 0.877 3.543 2.210 2.210 L 3.543 0.877 175.614 0.991 C 340.638 1.101,347.728 1.148,348.741 2.161 C 349.753 3.174,349.803 9.972,349.960 165.347 C 350.119 324.082,350.099 327.503,349.008 328.709 C 348.395 329.386,347.496 329.940,347.009 329.940 C 346.523 329.940,346.281 330.096,346.471 330.286 C 346.661 330.476,347.387 330.451,348.084 330.230 C 351.161 329.253,351.000 338.314,351.000 165.661 C 351.000 47.624,350.825 4.938,350.336 3.534 C 349.008 -0.273,362.516 -0.002,175.373 0.023 C 33.266 0.042,4.670 0.178,3.150 0.839 M111.150 54.405 C 110.370 55.185,109.980 56.355,109.980 57.915 C 109.980 60.883,111.561 62.595,114.303 62.595 C 117.310 62.595,119.021 60.898,119.021 57.915 C 119.021 56.037,118.695 55.186,117.653 54.343 C 115.845 52.878,112.646 52.909,111.150 54.405 M224.157 54.589 C 222.414 56.444,222.453 59.645,224.239 61.323 C 227.165 64.072,232.245 61.909,232.245 57.915 C 232.245 53.856,226.908 51.661,224.157 54.589 M225.409 68.449 C 223.131 69.367,222.129 72.959,223.458 75.442 C 224.246 76.915,227.261 77.892,228.990 77.234 C 230.592 76.625,232.245 74.486,232.245 73.022 C 232.245 71.253,230.994 69.181,229.520 68.510 C 227.863 67.754,227.160 67.744,225.409 68.449 M111.252 69.799 C 109.651 71.503,109.629 73.691,111.192 75.679 C 113.691 78.854,118.755 76.825,118.755 72.649 C 118.755 68.765,113.941 66.936,111.252 69.799 M97.172 118.264 C 79.337 120.815,64.105 134.021,58.145 152.100 C 56.626 156.707,56.505 157.760,56.501 166.432 C 56.496 175.312,56.587 176.063,58.269 181.066 C 62.735 194.346,71.503 204.342,83.915 210.305 C 102.485 219.226,124.780 215.284,139.330 200.507 C 145.056 194.691,149.143 187.711,151.486 179.746 C 152.839 175.143,152.570 173.574,150.304 172.854 C 148.515 172.287,147.036 173.959,146.237 177.450 C 145.258 181.729,141.508 189.251,138.406 193.155 C 134.547 198.015,129.350 202.074,123.253 204.990 C 116.242 208.345,112.864 209.094,104.715 209.103 C 96.793 209.112,92.547 208.148,85.703 204.784 C 74.786 199.418,66.997 190.088,63.453 178.129 C 62.177 173.824,61.894 171.697,61.894 166.432 C 61.894 154.708,66.063 144.568,74.295 136.271 C 81.661 128.847,91.111 124.336,100.773 123.631 C 105.739 123.268,107.640 122.404,107.640 120.510 C 107.640 119.966,107.159 119.086,106.570 118.553 C 105.392 117.487,103.100 117.417,97.172 118.264 M255.937 120.200 C 243.746 123.041,238.537 125.859,222.925 138.060 C 214.061 144.988,212.467 146.163,210.015 147.573 C 207.307 149.132,200.195 151.250,199.615 150.670 C 199.436 150.491,199.597 150.345,199.973 150.345 C 200.436 150.345,200.655 148.832,200.655 145.630 C 200.655 142.636,200.442 141.048,200.070 141.278 C 199.709 141.500,199.485 140.504,199.485 138.680 L 199.485 135.720 202.445 135.720 C 204.269 135.720,205.265 135.496,205.042 135.135 C 204.844 134.813,203.512 134.550,202.083 134.550 C 199.499 134.550,199.485 134.538,199.485 132.484 C 199.485 131.187,199.158 130.293,198.607 130.082 C 198.125 129.896,197.730 129.078,197.730 128.262 L 197.730 126.780 192.904 127.098 C 185.231 127.604,186.030 124.859,186.030 150.700 L 186.030 173.160 246.577 173.160 L 307.125 173.160 307.125 151.239 L 307.125 129.318 302.006 126.874 C 286.072 119.267,269.959 116.932,255.937 120.200 M95.481 129.296 C 88.454 131.137,83.423 134.122,77.805 139.785 C 72.167 145.468,69.731 149.694,67.867 157.020 C 65.555 166.110,66.744 175.916,71.193 184.451 C 74.493 190.781,81.400 197.480,87.783 200.541 C 94.702 203.859,97.050 204.393,104.715 204.393 C 112.339 204.393,114.768 203.847,121.387 200.647 C 132.191 195.425,139.637 185.972,142.013 174.464 C 143.124 169.083,142.793 167.729,140.291 167.427 C 138.403 167.198,137.602 168.234,136.931 171.775 C 134.510 184.538,125.082 194.911,113.113 197.979 C 108.505 199.160,100.910 199.157,96.317 197.973 C 85.170 195.099,75.872 185.614,72.858 174.041 C 69.156 159.830,76.857 143.512,90.271 137.142 C 94.230 135.261,96.259 134.758,104.596 133.588 C 107.191 133.223,108.313 130.999,106.765 129.287 C 105.388 127.766,101.309 127.769,95.481 129.296 M99.099 138.664 C 94.793 139.517,89.315 142.436,85.648 145.831 C 76.283 154.501,73.964 168.483,80.008 179.844 C 82.297 184.148,88.097 189.673,92.564 191.804 C 103.499 197.023,115.985 194.830,124.513 186.193 C 130.803 179.823,133.197 173.412,132.629 164.454 C 132.274 158.844,131.201 155.301,128.799 151.808 C 126.767 148.852,124.560 148.392,123.101 150.619 C 122.140 152.085,122.170 152.270,124.012 156.265 C 128.299 165.568,126.846 175.073,120.107 181.805 C 109.537 192.365,91.944 189.557,85.192 176.233 C 78.243 162.518,87.068 146.448,102.572 144.587 C 106.698 144.092,107.615 143.473,107.631 141.173 C 107.651 138.312,104.923 137.509,99.099 138.664 M208.767 186.039 C 207.961 186.509,207.744 188.343,207.383 197.721 C 207.006 207.511,207.070 209.019,207.913 210.307 L 208.872 211.770 224.925 211.770 C 240.198 211.770,241.008 211.715,241.584 210.638 C 241.939 209.975,242.190 205.014,242.190 198.646 C 242.190 188.565,242.106 187.701,241.020 186.615 C 239.910 185.505,239.083 185.446,224.786 185.463 C 216.319 185.473,209.304 185.725,208.767 186.039 " stroke="none" fill="black" fill-rule="evenodd"></path></svg>