<svg aria-hidden="true" style="position: absolute; width: 0; height: 0; overflow: hidden;" version="1.1" xmlns="http://www.w3.org/2000/svg" xmlns:xlink="http://www.w3.org/1999/xlink">
<defs>
<symbol id="icon-facebook" viewBox="0 0 32 32">
<path d="M19.573 1.368c-3.475 0.197-6.341 2.589-7.246 5.802l-0.014 0.056c-0.225 0.816-0.267 1.236-0.297 3.023l-0.031 1.743-1.472 0.017c-1.671 0.020-1.775 0.043-2.147 0.455-0.345 0.384-0.34 0.324-0.34 3.536s-0.005 3.152 0.34 3.536c0.372 0.413 0.475 0.435 2.152 0.455l1.479 0.019 0.015 4.808c0.015 4.751 0.016 4.812 0.127 5.049 0.135 0.291 0.467 0.601 0.748 0.7 0.165 0.059 0.788 0.073 3.113 0.073s2.948-0.015 3.113-0.073c0.281-0.099 0.613-0.409 0.748-0.7 0.111-0.237 0.112-0.299 0.127-5.049l0.015-4.809 1.479-0.017c1.376-0.016 1.495-0.025 1.719-0.131 0.288-0.136 0.552-0.401 0.663-0.668 0.168-0.405 1.429-5.563 1.432-5.859 0-0.006 0-0.013 0-0.021 0-0.378-0.166-0.717-0.428-0.949l-0.001-0.001c-0.384-0.345-0.516-0.363-2.821-0.363h-2.044v-2.66l2.147-0.017c2.047-0.015 2.157-0.021 2.387-0.128 0.291-0.135 0.601-0.467 0.7-0.748 0.059-0.165 0.073-0.788 0.073-3.113s-0.015-2.948-0.073-3.113c-0.099-0.281-0.409-0.613-0.7-0.748-0.231-0.108-0.327-0.112-2.453-0.117-0.215-0.002-0.47-0.003-0.724-0.003-0.627 0-1.252 0.006-1.876 0.017l0.094-0.001zM22.667 5.333v1.333l-1.347 0.001c-0.74 0-1.515 0.024-1.72 0.053-1.133 0.16-2.065 1.111-2.217 2.265-0.033 0.257-0.049 1.261-0.039 2.533 0.015 1.892 0.025 2.128 0.112 2.32 0.129 0.289 0.388 0.551 0.677 0.687 0.229 0.108 0.332 0.115 2.2 0.131 1.077 0.009 1.96 0.027 1.96 0.040s-0.147 0.611-0.325 1.327l-0.325 1.301-1.635 0.017c-1.536 0.016-1.649 0.024-1.875 0.131-0.299 0.147-0.534 0.385-0.674 0.678l-0.004 0.009c-0.089 0.2-0.097 0.524-0.111 5.027l-0.015 4.813h-2.661l-0.015-4.813c-0.013-4.503-0.021-4.827-0.111-5.027-0.144-0.301-0.379-0.539-0.669-0.683l-0.008-0.004c-0.223-0.105-0.344-0.115-1.72-0.131l-1.48-0.019v-2.648l1.48-0.019c1.376-0.016 1.497-0.025 1.72-0.131 0.289-0.137 0.548-0.399 0.676-0.687 0.087-0.192 0.099-0.477 0.128-2.827 0.036-2.793 0.033-2.767 0.331-3.577 0.591-1.604 2.064-2.899 3.747-3.292 0.559-0.131 0.521-0.129 2.279-0.137l1.64-0.007v1.333z"></path>
</symbol>
<symbol id="icon-instagram" viewBox="0 0 31 32">
<path d="M7.808 1.408c-2.514 0.397-4.592 1.967-5.685 4.121l-0.020 0.044c-0.431 0.858-0.69 1.825-0.772 2.894-0.064 0.81-0.064 13.027 0 13.837 0.148 1.92 0.852 3.485 2.166 4.824 1.238 1.263 2.723 2.003 4.489 2.237 0.795 0.106 13.953 0.106 14.748 0 1.728-0.229 3.117-0.904 4.369-2.122 1.070-1.028 1.834-2.366 2.148-3.869l0.009-0.049c0.168-0.827 0.186-1.725 0.168-8.452-0.017-5.943-0.027-6.706-0.104-7.118-0.307-1.665-1.005-3.023-2.134-4.16-1.207-1.215-2.62-1.93-4.329-2.191-0.648-0.1-14.427-0.096-15.053 0.004zM22.6 3.917c1.966 0.343 3.503 1.72 4.111 3.686l0.143 0.461v14.643l-0.141 0.448c-0.603 1.923-2.030 3.246-3.941 3.66-0.396 0.084-0.893 0.091-7.412 0.091s-7.017-0.006-7.412-0.091c-1.911-0.413-3.338-1.737-3.941-3.66l-0.141-0.448v-14.643l0.143-0.461c0.603-1.949 2.135-3.333 4.082-3.685 0.308-0.055 1.71-0.069 7.224-0.073 5.884-0.004 6.903 0.005 7.284 0.072zM22.053 7.136c-0.339 0.101-0.612 0.334-0.763 0.638l-0.003 0.007c-0.089 0.166-0.141 0.362-0.141 0.571 0 0.599 0.429 1.099 0.997 1.207l0.008 0.001c0.548 0.096 1.019-0.099 1.318-0.544 0.177-0.262 0.241-0.785 0.134-1.106-0.192-0.584-0.923-0.948-1.55-0.774zM14.234 9.059c-2.638 0.54-4.608 2.519-5.101 5.121-0.106 0.558-0.105 1.668 0.001 2.26 0.439 2.438 2.264 4.426 4.628 5.041 0.498 0.14 1.069 0.221 1.659 0.221 1.202 0 2.326-0.334 3.284-0.915l-0.028 0.016c1.53-0.928 2.629-2.439 2.993-4.217l0.007-0.041c0.307-1.635-0.019-3.325-0.901-4.671-1.012-1.544-2.5-2.523-4.31-2.835-0.609-0.105-1.672-0.095-2.234 0.020zM16.477 11.62c1.24 0.356 2.188 1.283 2.621 2.563 0.084 0.25 0.119 0.5 0.138 1.006 0.026 0.62 0.017 0.709-0.11 1.152-0.388 1.352-1.452 2.388-2.793 2.73l-0.027 0.006c-0.481 0.122-1.316 0.12-1.792-0.001-2.432-0.623-3.642-3.245-2.532-5.485 0.383-0.773 0.951-1.329 1.769-1.728 0.301-0.147 0.558-0.23 1.121-0.364 0.244-0.058 1.243 0.018 1.604 0.122z"></path>
</symbol>
<symbol id="icon-mobile" viewBox="0 0 21 32">
<path d="M3.088 2.351c-0.211 0.058-0.393 0.13-0.566 0.218l0.017-0.008c-0.272 0.134-0.378 0.213-0.619 0.455-0.154 0.153-0.293 0.322-0.414 0.504l-0.007 0.012c-0.149 0.258-0.286 0.664-0.333 0.99-0.045 0.309-0.045 22.638 0 22.946 0.047 0.326 0.184 0.731 0.333 0.99 0.072 0.123 0.261 0.354 0.422 0.515 0.336 0.337 0.687 0.541 1.119 0.651 0.258 0.066 0.413 0.067 7.247 0.067s6.989-0.001 7.247-0.067c0.434-0.111 0.783-0.314 1.119-0.651 0.154-0.154 0.292-0.322 0.413-0.503l0.008-0.012c0.15-0.257 0.287-0.663 0.334-0.99 0.045-0.309 0.045-22.638 0-22.946-0.059-0.371-0.175-0.704-0.342-1.006l0.008 0.016c-0.129-0.194-0.267-0.363-0.421-0.517l0 0c-0.242-0.242-0.347-0.32-0.617-0.454-0.574-0.283 0.041-0.263-7.766-0.261-5.826 0.001-6.997 0.010-7.181 0.050zM16.106 14.288l-0.009 8.563h-11.623l-0.009-8.563-0.008-8.562h11.657l-0.008 8.562zM12.302 25.505c0.277 0.134 0.464 0.413 0.464 0.735 0 0.002 0 0.004-0 0.005v-0c0 0.006 0 0.014 0 0.021 0 0.343-0.194 0.64-0.479 0.788l-0.005 0.002-0.162 0.080h-1.851c-1.84 0-1.853 0-1.992-0.075-0.279-0.147-0.466-0.434-0.471-0.764v-0.001c-0.001-0.015-0.002-0.032-0.002-0.049 0-0.21 0.081-0.402 0.215-0.544l-0 0c0.246-0.272 0.162-0.263 2.278-0.263 1.778-0.001 1.885 0.002 2.006 0.064z"></path>
</symbol>
<symbol id="icon-twitter" viewBox="0 0 38 32">
<path d="M25.419 0.070c-3.082 0.353-5.651 2.257-6.931 4.901l-0.023 0.052c-0.482 1.002-0.698 1.829-0.802 3.064-0.032 0.382-0.075 0.712-0.094 0.733-0.050 0.050-1.214-0.099-1.922-0.246-2.912-0.603-5.776-2.144-7.818-4.208-0.575-0.597-1.122-1.234-1.63-1.902l-0.039-0.053c-0.156-0.205-0.334-0.382-0.532-0.533l-0.007-0.005c-0.242-0.16-0.323-0.178-0.822-0.178-0.498 0-0.579 0.018-0.821 0.178-0.174 0.123-0.323 0.266-0.449 0.427l-0.003 0.005c-0.328 0.451-0.867 2.093-1.213 3.685-1.13 5.214-0.339 9.91 2.293 13.594 1.088 1.523 2.896 3.23 4.419 4.17 0.245 0.152 0.446 0.291 0.446 0.309 0 0.019-0.339 0.168-0.752 0.331-2.107 0.837-3.81 1.176-6.256 1.25-1.389 0.042-1.53 0.072-1.92 0.413-0.662 0.582-0.675 1.642-0.029 2.288 0.341 0.342 2.488 1.386 4.029 1.96 2.678 0.995 5.189 1.475 8.128 1.549 5.018 0.126 9.466-1.213 13.496-4.062 4.646-3.286 7.837-8.734 8.706-14.862 0.192-1.365 0.264-2.317 0.275-3.68l0.008-1.216 0.486-0.608c1.267-1.584 2.122-3.269 2.602-5.125 0.146-0.565 0.155-0.675 0.093-0.984-0.17-0.814-0.816-1.298-1.656-1.237-0.402 0.029-0.485 0.062-1.070 0.434-0.915 0.581-1.691 1.005-2.464 1.349-0.99 0.438-0.891 0.435-1.362 0.046-1.654-1.363-4.176-2.091-6.366-1.837zM27.776 3.36c0.675 0.207 1.262 0.482 1.8 0.825l-0.029-0.017c0.17 0.115 0.557 0.45 0.859 0.741 0.819 0.79 1.184 0.875 2.27 0.526 0.338-0.109 0.626-0.187 0.638-0.174s-0.237 0.31-0.552 0.661c-0.317 0.352-0.634 0.747-0.704 0.88-0.146 0.275-0.152 0.421-0.090 2.094 0.126 3.45-0.787 7.349-2.43 10.368-0.611 1.077-1.229 1.998-1.906 2.868l0.039-0.052c-0.579 0.728-1.832 1.973-2.597 2.579-1.675 1.321-3.625 2.39-5.738 3.107l-0.137 0.040c-3.069 0.992-6.52 1.182-9.92 0.55-0.949-0.176-1.342-0.275-1.31-0.326 0.014-0.024 0.208-0.094 0.429-0.157 1.59-0.443 4.805-2.046 5.501-2.742 0.603-0.603 0.606-1.661 0.005-2.235-0.096-0.093-0.651-0.408-1.232-0.702-1.138-0.576-2.018-1.107-2.765-1.669-2.762-2.080-4.371-4.818-4.819-8.205-0.214-1.619-0.078-4.202 0.296-5.626l0.066-0.25 0.491 0.478c1.931 1.882 4.442 3.365 7.174 4.242 1.712 0.55 3.17 0.794 5.074 0.848l1.323 0.038 0.354-0.173c0.362-0.182 0.645-0.475 0.81-0.834l0.004-0.011c0.046-0.114 0.094-0.795 0.122-1.754 0.050-1.723 0.117-2.099 0.52-2.901 0.838-1.669 2.219-2.736 4.027-3.114 0.445-0.091 1.947-0.034 2.427 0.094z"></path>
</symbol>
</defs>
</svg>
