<svg aria-hidden="true" style="position: absolute; width: 0; height: 0; overflow: hidden;" version="1.1" xmlns="http://www.w3.org/2000/svg" xmlns:xlink="http://www.w3.org/1999/xlink">
<defs>
<symbol id="icon-amico_1" viewBox="0 0 36 32">
<path fill="#f5f5f5" style="fill: var(--color1, #f5f5f5)" d="M5.327 28.844c7.103 4.083 18.62 4.083 25.723 0s7.103-10.704 0-14.788c-7.103-4.084-18.617-4.083-25.723 0s-7.1 10.705 0 14.788z"></path>
<path fill="#e0e0e0" style="fill: var(--color2, #e0e0e0)" d="M3.347 22.147l-2.309-1.466v-5.45l2.309 1.467v5.449z"></path>
<path fill="#ebebeb" style="fill: var(--color3, #ebebeb)" d="M3.347 16.699l3.299-2.096v5.449l-3.299 2.096v-5.449z"></path>
<path fill="#f5f5f5" style="fill: var(--color1, #f5f5f5)" d="M6.646 14.603l-3.299 2.096-2.309-1.468 3.299-2.096 2.309 1.467z"></path>
<path fill="#e0e0e0" style="fill: var(--color2, #e0e0e0)" d="M3.678 16.908l2.639-1.677 0.061 0.038v2.019l-2.639 1.677-0.061-0.038 0.001-2.019z"></path>
<path fill="#f5f5f5" style="fill: var(--color1, #f5f5f5)" d="M3.738 16.947l2.639-1.677v2.019l-2.639 1.677v-2.018z"></path>
<path fill="#e0e0e0" style="fill: var(--color2, #e0e0e0)" d="M4.773 16.632l0.449-0.285c0.058-0.038 0.105-0.021 0.105 0.038-0.004 0.036-0.016 0.070-0.034 0.099s-0.042 0.055-0.071 0.072l-0.449 0.285c-0.058 0.038-0.106 0.021-0.106-0.038 0.004-0.036 0.016-0.070 0.034-0.1s0.043-0.055 0.071-0.072z"></path>
<path fill="#e0e0e0" style="fill: var(--color2, #e0e0e0)" d="M3.617 19.462l2.639-1.677v2.019l0.061 0.038-2.639 1.677-0.060-0.038v-2.019z"></path>
<path fill="#f5f5f5" style="fill: var(--color1, #f5f5f5)" d="M3.677 19.5l2.64-1.677v2.019l-2.639 1.677v-2.019z"></path>
<path fill="#e0e0e0" style="fill: var(--color2, #e0e0e0)" d="M4.712 19.186l0.453-0.284c0.058-0.038 0.106-0.021 0.106 0.038-0.004 0.036-0.016 0.070-0.034 0.1s-0.043 0.054-0.071 0.072l-0.449 0.285c-0.058 0.038-0.106 0.021-0.106-0.038 0.004-0.035 0.015-0.070 0.032-0.099s0.041-0.055 0.069-0.073z"></path>
<path fill="#e0e0e0" style="fill: var(--color2, #e0e0e0)" d="M3.347 16.384l-2.309-1.467v-5.449l2.309 1.467v5.45z"></path>
<path fill="#ebebeb" style="fill: var(--color3, #ebebeb)" d="M3.347 10.934l3.299-2.096v5.45l-3.299 2.096v-5.45z"></path>
<path fill="#f5f5f5" style="fill: var(--color1, #f5f5f5)" d="M6.646 8.839l-3.299 2.096-2.309-1.467 3.299-2.096 2.309 1.467z"></path>
<path fill="#e0e0e0" style="fill: var(--color2, #e0e0e0)" d="M3.677 11.144l2.64-1.677 0.061 0.038v2.019l-2.639 1.677-0.061-0.039v-2.018z"></path>
<path fill="#e0e0e0" style="fill: var(--color2, #e0e0e0)" d="M4.773 10.867l0.448-0.285c0.058-0.037 0.106-0.020 0.106 0.038-0.004 0.036-0.016 0.070-0.034 0.1s-0.043 0.054-0.071 0.072l-0.448 0.285c-0.058 0.037-0.106 0.021-0.106-0.038 0.004-0.036 0.016-0.070 0.034-0.1s0.043-0.055 0.071-0.073z"></path>
<path fill="#e0e0e0" style="fill: var(--color2, #e0e0e0)" d="M3.617 13.698l2.639-1.677v2.018l0.061 0.038-2.639 1.677-0.060-0.038v-2.018z"></path>
<path fill="#f5f5f5" style="fill: var(--color1, #f5f5f5)" d="M3.677 13.737l2.64-1.677v2.018l-2.639 1.677v-2.018z"></path>
<path fill="#e0e0e0" style="fill: var(--color2, #e0e0e0)" d="M4.712 13.421l0.453-0.285c0.058-0.037 0.106-0.020 0.106 0.038-0.005 0.036-0.016 0.070-0.035 0.099s-0.043 0.055-0.071 0.072l-0.453 0.282c-0.058 0.037-0.106 0.020-0.106-0.038 0.005-0.035 0.017-0.069 0.035-0.098s0.043-0.054 0.071-0.071z"></path>
<path fill="#e0e0e0" style="fill: var(--color2, #e0e0e0)" d="M3.677 11.144l2.64-1.677v2.018l-2.639 1.677v-2.018z"></path>
<path fill="#e0e0e0" style="fill: var(--color2, #e0e0e0)" d="M7.636 10.465l-1.445-0.918v1.778l1.445 0.917v-1.777z"></path>
<path fill="#ebebeb" style="fill: var(--color3, #ebebeb)" d="M4.667 13.45v-2.516l0.566-0.361 0.093 0.152 1.649-1.048v2.306l-2.309 1.467z"></path>
<path fill="#f5f5f5" style="fill: var(--color1, #f5f5f5)" d="M4.667 13.45l0.165-2.201 2.309-1.467-0.165 2.2-2.309 1.467z"></path>
<path fill="#ebebeb" style="fill: var(--color3, #ebebeb)" d="M4.997 12.142l-1.259-0.8v1.778l1.259 0.799v-1.777z"></path>
<path fill="#f5f5f5" style="fill: var(--color1, #f5f5f5)" d="M4.997 11.983l2.639-1.677v2.018l-2.639 1.677v-2.018z"></path>
<path fill="#e0e0e0" style="fill: var(--color2, #e0e0e0)" d="M6.031 11.667l0.448-0.285c0.058-0.037 0.106-0.020 0.106 0.038-0.004 0.036-0.016 0.070-0.035 0.099s-0.043 0.054-0.071 0.072l-0.448 0.285c-0.058 0.037-0.106 0.020-0.106-0.038 0.004-0.036 0.016-0.070 0.034-0.1s0.043-0.055 0.071-0.073z"></path>
<path fill="#e0e0e0" style="fill: var(--color2, #e0e0e0)" d="M4.997 11.982l-0.088-0.055v2.018l0.088 0.055v-2.018z"></path>
<path fill="#ebebeb" style="fill: var(--color3, #ebebeb)" d="M4.909 11.927l2.639-1.677 0.089 0.056-2.639 1.677-0.088-0.055z"></path>
<path fill="#e0e0e0" style="fill: var(--color2, #e0e0e0)" d="M30.626 18.846l-2.31-1.467v-5.449l2.31 1.466v5.45z"></path>
<path fill="#ebebeb" style="fill: var(--color3, #ebebeb)" d="M30.626 13.396l3.299-2.096v5.45l-3.299 2.096v-5.45z"></path>
<path fill="#f5f5f5" style="fill: var(--color1, #f5f5f5)" d="M33.925 11.301l-3.299 2.096-2.31-1.466 3.3-2.097 2.309 1.467z"></path>
<path fill="#e0e0e0" style="fill: var(--color2, #e0e0e0)" d="M30.955 13.606l2.64-1.677 0.061 0.038-0.001 2.018-2.639 1.677-0.061-0.038v-2.018z"></path>
<path fill="#f5f5f5" style="fill: var(--color1, #f5f5f5)" d="M31.016 13.645l2.64-1.677-0.001 2.018-2.639 1.677v-2.018z"></path>
<path fill="#e0e0e0" style="fill: var(--color2, #e0e0e0)" d="M32.051 13.329l0.448-0.285c0.058-0.037 0.106-0.020 0.106 0.038-0.004 0.036-0.016 0.070-0.034 0.1s-0.043 0.055-0.071 0.073l-0.448 0.285c-0.058 0.037-0.105 0.020-0.105-0.038 0.004-0.036 0.016-0.070 0.034-0.1s0.043-0.055 0.071-0.073z"></path>
<path fill="#e0e0e0" style="fill: var(--color2, #e0e0e0)" d="M30.895 16.161l2.64-1.677v2.019l0.061 0.038-2.64 1.677-0.061-0.038v-2.018z"></path>
<path fill="#f5f5f5" style="fill: var(--color1, #f5f5f5)" d="M30.955 16.199l2.64-1.677v2.018l-2.64 1.677v-2.018z"></path>
<path fill="#e0e0e0" style="fill: var(--color2, #e0e0e0)" d="M31.99 15.883l0.449-0.285c0.058-0.037 0.105-0.020 0.105 0.038-0.004 0.036-0.016 0.070-0.034 0.1s-0.042 0.055-0.071 0.073l-0.449 0.285c-0.058 0.037-0.106 0.020-0.106-0.038 0.004-0.036 0.016-0.070 0.035-0.099s0.043-0.055 0.071-0.072z"></path>
<path fill="#02897a" style="fill: var(--color4, #02897a)" d="M8.657 24.542c0 0 0.009-1.417-0.803-2.48-0.719-0.941-1.101-1.538-0.875-1.813s0.714-0.341 1.371 0.42 0.708 2.87 0.617 3.348l-0.31 0.525z"></path>
<path fill="#000" style="fill: var(--color5, #000)" opacity="0.2" d="M8.657 24.542c0 0 0.009-1.417-0.803-2.48-0.719-0.941-1.101-1.538-0.875-1.813s0.714-0.341 1.371 0.42 0.708 2.87 0.617 3.348l-0.31 0.525z"></path>
<path fill="#fff" style="fill: var(--color6, #fff)" d="M8.794 23.018c-0.009 0-0.018-0.003-0.025-0.010s-0.012-0.015-0.014-0.025c-0.284-1.463-1.014-2.272-1.424-2.624-0.008-0.007-0.014-0.018-0.015-0.030s0.002-0.024 0.008-0.033c0.007-0.009 0.017-0.016 0.027-0.017s0.022 0.002 0.030 0.009c0.418 0.357 1.163 1.185 1.453 2.676 0.001 0.006 0.001 0.012 0 0.017s-0.003 0.011-0.006 0.016c-0.003 0.005-0.007 0.009-0.011 0.012s-0.009 0.006-0.015 0.007l-0.009 0.001z"></path>
<path fill="#02897a" style="fill: var(--color4, #02897a)" d="M8.626 25.068l-0.331 0.21c-0.035-0.106-0.095-0.2-0.173-0.274s-0.172-0.124-0.272-0.145c-0.361-0.089-0.737-0.074-0.99-0.419s0.055-0.72 0-0.974-0.091-0.327-0.544-0.581c-0.453-0.254-0.632-0.675-0.291-0.96s0.893-0.076 1.228 0.179c0.297 0.223 0.58 0.282 0.912 0.328s0.873 0.248 0.79 1.098c-0.054 0.525-0.165 1.042-0.33 1.539z"></path>
<path fill="#fff" style="fill: var(--color6, #fff)" d="M7.358 23.953c-0.009-0-0.017-0.003-0.024-0.009s-0.012-0.014-0.015-0.023c-0.003-0.011-0.002-0.024 0.003-0.034s0.014-0.018 0.024-0.022c0.029-0.010 0.731-0.255 1.029 0.008 0.007 0.008 0.012 0.018 0.013 0.029s-0.002 0.022-0.009 0.031c-0.006 0.009-0.015 0.015-0.025 0.016s-0.020-0.001-0.029-0.007c-0.263-0.232-0.947 0.005-0.954 0.008l-0.012 0.002z"></path>
<path fill="#fff" style="fill: var(--color6, #fff)" d="M8.663 25c-0.010 0-0.019-0.004-0.027-0.011s-0.012-0.017-0.013-0.028c-0.181-1.882-2.242-2.775-2.262-2.784-0.005-0.002-0.010-0.005-0.014-0.009s-0.007-0.009-0.009-0.014c-0.002-0.005-0.003-0.011-0.003-0.017s0.001-0.012 0.003-0.017c0.004-0.011 0.012-0.020 0.021-0.024s0.021-0.005 0.031-0.002c0.022 0.010 2.128 0.921 2.314 2.86 0.001 0.012-0.002 0.024-0.009 0.033s-0.016 0.015-0.027 0.016l-0.005-0.002z"></path>
<path fill="#02897a" style="fill: var(--color4, #02897a)" d="M28.863 23.832c0.009-0.031 0.357-2.005 0-3.404-0.325-1.283-0.749-1.757-1.353-1.862s-0.866 0.375-0.546 1.023c0.321 0.649 1.093 1.51 1.282 2.959 0.081 0.597 0.143 1.115 0.143 1.115l0.474 0.168z"></path>
<path fill="#000" style="fill: var(--color5, #000)" opacity="0.2" d="M28.863 23.832c0.009-0.031 0.357-2.005 0-3.404-0.325-1.283-0.749-1.757-1.353-1.862s-0.866 0.375-0.546 1.023c0.321 0.649 1.093 1.51 1.282 2.959 0.081 0.597 0.143 1.115 0.143 1.115l0.474 0.168z"></path>
<path fill="#fff" style="fill: var(--color6, #fff)" d="M28.66 22.699c-0.005-0-0.011-0.002-0.015-0.004s-0.009-0.006-0.013-0.011-0.006-0.009-0.008-0.015c-0.002-0.006-0.002-0.011-0.002-0.017 0.081-1.598-0.393-3.024-1.243-3.724-0.009-0.007-0.014-0.018-0.016-0.029s0.001-0.024 0.008-0.033c0.007-0.009 0.016-0.015 0.027-0.017s0.021 0.001 0.030 0.008c0.872 0.715 1.36 2.174 1.275 3.801-0.001 0.012-0.005 0.023-0.013 0.030s-0.018 0.012-0.029 0.012z"></path>
<path fill="#02897a" style="fill: var(--color4, #02897a)" d="M29.798 24.86c-0.046-0.367 0.145-0.918 0.601-1.048s0.659-0.418 0.495-0.733c-0.164-0.315-0.126-0.603 0.288-0.734s0.776-0.358 0.538-0.838c-0.173-0.348-0.211-0.573 0.213-1.257 0.352-0.568 0.064-0.902-0.376-0.839s-0.712 0.64-0.988 0.736c-0.275 0.097-0.339-0.418-0.702-0.188s-0.341 0.821-0.352 1.233c-0.011 0.412-0.036 0.505-0.364 0.455s-0.65 0.009-0.642 0.882c0.006 0.749 0.369 1.677 0.369 1.677l0.922 0.654z"></path>
<path fill="#fff" style="fill: var(--color6, #fff)" d="M29.222 24.301h-0.004c-0.011-0.001-0.021-0.007-0.028-0.017s-0.010-0.021-0.009-0.033c0.229-2.251 1.985-4.15 2.443-4.535 0.009-0.007 0.020-0.010 0.030-0.009s0.020 0.008 0.027 0.017c0.007 0.009 0.009 0.021 0.008 0.033s-0.007 0.023-0.016 0.030c-0.452 0.38-2.186 2.254-2.411 4.474-0.001 0.011-0.006 0.021-0.013 0.028s-0.017 0.012-0.027 0.012z"></path>
<path fill="#fff" style="fill: var(--color6, #fff)" d="M30.023 21.894c-0.008 0-0.016-0.003-0.023-0.008s-0.012-0.012-0.015-0.021c-0.003-0.011-0.003-0.024 0.002-0.034s0.013-0.019 0.023-0.024c0.655-0.268 1.397-0.141 1.429-0.136 0.011 0.002 0.020 0.008 0.026 0.018s0.009 0.021 0.007 0.033c-0.002 0.012-0.008 0.022-0.016 0.029s-0.019 0.010-0.030 0.009c-0.007 0-0.753-0.129-1.387 0.131-0.005 0.002-0.010 0.003-0.015 0.003z"></path>
<path fill="#fff" style="fill: var(--color6, #fff)" d="M29.44 23.248c-0.006-0-0.011-0.001-0.017-0.004s-0.010-0.006-0.014-0.011c-0.272-0.349-0.457-0.77-0.535-1.222-0.001-0.006-0.001-0.012 0.001-0.017s0.004-0.011 0.007-0.016c0.003-0.005 0.007-0.009 0.012-0.012s0.010-0.005 0.015-0.006c0.005-0.001 0.011-0.001 0.016 0.001s0.010 0.004 0.014 0.007c0.004 0.003 0.008 0.008 0.011 0.013s0.005 0.011 0.005 0.016c0.078 0.434 0.255 0.839 0.516 1.175 0.005 0.007 0.008 0.015 0.009 0.023s0 0.017-0.003 0.025-0.008 0.015-0.015 0.019c-0.007 0.005-0.014 0.007-0.022 0.008z"></path>
<path fill="#22343d" style="fill: var(--color7, #22343d)" d="M8.626 11.236v13.833l12.866-8.174-0.001-12.575-9.566 6.078-0.331-1.048-2.968 1.887z"></path>
<path fill="#e0e0e0" style="fill: var(--color2, #e0e0e0)" d="M8.626 25.069l0.659-12.575 12.866-8.174-0.66 12.575-12.866 8.174z"></path>
<path fill="#22343d" style="fill: var(--color7, #22343d)" d="M8.626 25.069l0.989-12.365 12.866-8.175-0.989 12.366-12.866 8.174z"></path>
<path fill="#f03e3d" style="fill: var(--color8, #f03e3d)" d="M10.605 12.494v13.833l12.866-8.175v-12.575l-9.567 6.078-0.33-1.048-2.969 1.887z"></path>
<path fill="#e0e0e0" style="fill: var(--color2, #e0e0e0)" d="M10.605 26.327l0.659-12.576 12.866-8.174-0.66 12.575-12.866 8.175z"></path>
<path fill="#f03e3d" style="fill: var(--color8, #f03e3d)" d="M10.605 26.327l0.989-12.366 12.866-8.175-0.989 12.366-12.866 8.175z"></path>
<path fill="#e0e0e0" style="fill: var(--color2, #e0e0e0)" d="M21.489 30.729c-2.31-1.467-4.452-3.063-5.43-4.934l2.973-1.888 2.458 6.822z"></path>
<path fill="#02897a" style="fill: var(--color4, #02897a)" d="M12.914 13.961v13.833l12.866-8.174v-12.575l-9.567 6.078-0.33-1.048-2.969 1.887z"></path>
<path fill="#000" style="fill: var(--color5, #000)" opacity="0.2" d="M12.914 13.961v13.833l12.866-8.174v-12.575l-9.567 6.078-0.33-1.048-2.969 1.887z"></path>
<path fill="#fff" style="fill: var(--color6, #fff)" d="M16.621 18.051c-0.033 0-0.037-0.041-0.037-0.065v-11.797c0.003-0.046 0.015-0.090 0.036-0.13s0.050-0.074 0.085-0.099l9.286-5.898c0.013-0.009 0.027-0.014 0.042-0.014 0.032 0 0.037 0.041 0.037 0.065v11.797c-0.003 0.046-0.015 0.091-0.036 0.13s-0.050 0.074-0.085 0.099l-9.286 5.898c-0.013 0.008-0.027 0.013-0.042 0.013z"></path>
<path fill="#02897a" style="fill: var(--color4, #02897a)" d="M26.027 0.088c0.001 0.007 0.001 0.013 0 0.020v11.797c-0.003 0.038-0.013 0.075-0.030 0.108s-0.041 0.062-0.070 0.083l-9.302 5.906c-0.001-0.006-0.001-0.013 0-0.020v-11.797c0.003-0.038 0.013-0.075 0.030-0.108s0.041-0.061 0.069-0.083l9.286-5.898c0.005-0.004 0.011-0.007 0.017-0.008l-0.001-0.001zM26.033 0c-0.022 0.001-0.044 0.008-0.063 0.021l-9.286 5.898c-0.041 0.029-0.075 0.069-0.099 0.116s-0.039 0.099-0.041 0.152v11.797c0 0.070 0.032 0.11 0.081 0.11 0.022-0.001 0.044-0.008 0.063-0.021l9.286-5.898c0.041-0.029 0.075-0.069 0.1-0.116s0.038-0.099 0.041-0.153v-11.797c0-0.070-0.032-0.111-0.081-0.11z"></path>
<path fill="#fff" style="fill: var(--color6, #fff)" opacity="0.7" d="M26.027 0.088c0.001 0.007 0.001 0.013 0 0.020v11.797c-0.003 0.038-0.013 0.075-0.030 0.108s-0.041 0.062-0.070 0.083l-9.302 5.906c-0.001-0.006-0.001-0.013 0-0.020v-11.797c0.003-0.038 0.013-0.075 0.030-0.108s0.041-0.061 0.069-0.083l9.286-5.898c0.005-0.004 0.011-0.007 0.017-0.008l-0.001-0.001zM26.033 0c-0.022 0.001-0.044 0.008-0.063 0.021l-9.286 5.898c-0.041 0.029-0.075 0.069-0.099 0.116s-0.039 0.099-0.041 0.152v11.797c0 0.070 0.032 0.11 0.081 0.11 0.022-0.001 0.044-0.008 0.063-0.021l9.286-5.898c0.041-0.029 0.075-0.069 0.1-0.116s0.038-0.099 0.041-0.153v-11.797c0-0.070-0.032-0.111-0.081-0.11z"></path>
<path fill="#02897a" style="fill: var(--color4, #02897a)" d="M17.533 6.637l3.299-2.096v4.191l-3.299 2.096v-4.191z"></path>
<path fill="#11b5e4" style="fill: var(--color9, #11b5e4)" opacity="0.8" d="M17.533 6.637l3.299-2.096v4.191l-3.299 2.096v-4.191z"></path>
<path fill="#fff" style="fill: var(--color6, #fff)" d="M20.337 5.586v1.26l-0.104 0.063v-0.385c0-0.213-0.157-0.285-0.352-0.162l-1.398 0.889c-0.194 0.123-0.352 0.396-0.352 0.609v0.385l-0.103 0.068v-1.257l2.308-1.47z"></path>
<path fill="#fff" style="fill: var(--color6, #fff)" d="M19.702 8.794c-0.169 0.107-0.306-0.005-0.306-0.253v-2.017l-0.425 0.254v2.033c0 0.247-0.137 0.536-0.306 0.641l-0.307 0.195v0.134l1.649-1.048v-0.133l-0.305 0.195z"></path>
<path fill="#455a64" style="fill: var(--color10, #455a64)" d="M21.489 4.334c0 0.116 0.095 0.149 0.211 0.076l3.21-2.042c0.057-0.036 0.106-0.085 0.142-0.145s0.060-0.128 0.069-0.199c0-0.115-0.095-0.149-0.211-0.075l-3.207 2.038c-0.058 0.035-0.107 0.085-0.144 0.146s-0.061 0.13-0.069 0.202z"></path>
<path fill="#455a64" style="fill: var(--color10, #455a64)" d="M21.489 5.586c0 0.116 0.095 0.15 0.211 0.076l3.207-2.038c0.057-0.035 0.106-0.085 0.142-0.145s0.060-0.128 0.069-0.199c0-0.115-0.095-0.149-0.211-0.075l-3.207 2.038c-0.057 0.035-0.105 0.085-0.142 0.144s-0.060 0.128-0.069 0.199z"></path>
<path fill="#455a64" style="fill: var(--color10, #455a64)" d="M21.489 6.846c0 0.116 0.095 0.15 0.211 0.076l3.207-2.038c0.057-0.035 0.105-0.085 0.142-0.144s0.060-0.128 0.069-0.199c0-0.116-0.095-0.15-0.211-0.076l-3.207 2.038c-0.057 0.035-0.105 0.085-0.142 0.144s-0.060 0.128-0.069 0.199z"></path>
<path fill="#455a64" style="fill: var(--color10, #455a64)" d="M21.489 8.103c0 0.116 0.095 0.15 0.211 0.076l3.207-2.038c0.057-0.035 0.105-0.085 0.142-0.144s0.060-0.128 0.069-0.199c0-0.116-0.095-0.15-0.211-0.076l-3.207 2.038c-0.057 0.035-0.105 0.085-0.142 0.144s-0.060 0.128-0.069 0.199z"></path>
<path fill="#455a64" style="fill: var(--color10, #455a64)" d="M17.533 11.876c0 0.116 0.094 0.15 0.211 0.076l7.166-4.558c0.057-0.035 0.106-0.085 0.142-0.144s0.060-0.128 0.069-0.199c0-0.116-0.095-0.149-0.211-0.076l-7.166 4.558c-0.057 0.035-0.106 0.085-0.142 0.144s-0.060 0.128-0.069 0.199z"></path>
<path fill="#455a64" style="fill: var(--color10, #455a64)" d="M17.533 13.134c0 0.116 0.094 0.15 0.211 0.076l7.166-4.553c0.057-0.036 0.106-0.085 0.142-0.145s0.060-0.128 0.069-0.199c0-0.115-0.095-0.149-0.211-0.075l-7.166 4.552c-0.057 0.035-0.106 0.085-0.142 0.144s-0.060 0.128-0.069 0.199z"></path>
<path fill="#455a64" style="fill: var(--color10, #455a64)" d="M17.533 14.392c0 0.115 0.094 0.149 0.211 0.075l7.166-4.552c0.057-0.036 0.106-0.085 0.142-0.145s0.060-0.128 0.069-0.199c0-0.115-0.095-0.149-0.211-0.075l-7.166 4.552c-0.057 0.035-0.106 0.085-0.142 0.145s-0.060 0.128-0.069 0.2z"></path>
<path fill="#02897a" style="fill: var(--color4, #02897a)" d="M12.914 27.794l2.309-11.108 12.866-8.175-2.309 11.109-12.866 8.174z"></path>
<path fill="#02897a" style="fill: var(--color4, #02897a)" d="M16.062 17.556v8.239l2.969-1.887v-8.238l-2.969 1.886z"></path>
<path fill="#000" style="fill: var(--color5, #000)" opacity="0.2" d="M16.062 17.556v8.239l2.969-1.887v-8.238l-2.969 1.886z"></path>
<path fill="#fff" style="fill: var(--color6, #fff)" d="M21.495 30.675c-0.253-0.207-2.687-2.255-3.925-5.183-1.317-3.114-1.316-6.746-1.316-8.112v-0.043l8.826-5.607c0 1.379 0 5.016 1.323 8.141 1.209 2.86 3.551 4.881 3.922 5.19l-8.83 5.614z"></path>
<path fill="#02897a" style="fill: var(--color4, #02897a)" d="M25.040 11.81c0 1.437 0.025 5.005 1.327 8.083 1.169 2.761 3.391 4.747 3.885 5.166l-8.755 5.562c-0.342-0.283-2.685-2.297-3.89-5.145-1.316-3.105-1.316-6.73-1.316-8.094v-0.017l8.748-5.555zM25.118 11.655l-8.908 5.66c0 1.286-0.024 5.023 1.32 8.2 1.323 3.118 3.959 5.215 3.959 5.215l8.91-5.661c0 0-2.64-2.097-3.958-5.215-1.345-3.177-1.32-6.914-1.32-8.2l-0.003 0.001z"></path>
<path fill="#fff" style="fill: var(--color6, #fff)" opacity="0.7" d="M25.040 11.81c0 1.437 0.025 5.005 1.327 8.083 1.169 2.761 3.391 4.747 3.885 5.166l-8.755 5.562c-0.342-0.283-2.685-2.297-3.89-5.145-1.316-3.105-1.316-6.73-1.316-8.094v-0.017l8.748-5.555zM25.118 11.655l-8.908 5.66c0 1.286-0.024 5.023 1.32 8.2 1.323 3.118 3.959 5.215 3.959 5.215l8.91-5.661c0 0-2.64-2.097-3.958-5.215-1.345-3.177-1.32-6.914-1.32-8.2l-0.003 0.001z"></path>
<path fill="#455a64" style="fill: var(--color10, #455a64)" d="M24.113 13.553l-2.817 1.787c-0.056 0.034-0.104 0.083-0.14 0.142s-0.058 0.127-0.065 0.197c0.004 0.114 0.102 0.146 0.218 0.072l2.817-1.787c0.056-0.034 0.103-0.082 0.139-0.14s0.058-0.125 0.065-0.194c-0.005-0.118-0.102-0.15-0.218-0.076z"></path>
<path fill="#455a64" style="fill: var(--color10, #455a64)" d="M24.173 14.773l-2.817 1.787c-0.056 0.033-0.103 0.081-0.137 0.139s-0.055 0.125-0.059 0.195c0.009 0.11 0.111 0.139 0.227 0.065l2.817-1.787c0.055-0.033 0.102-0.081 0.136-0.139s0.054-0.125 0.058-0.194c-0.008-0.111-0.109-0.138-0.226-0.066z"></path>
<path fill="#455a64" style="fill: var(--color10, #455a64)" d="M24.286 15.959l-2.817 1.787c-0.116 0.074-0.201 0.222-0.187 0.328s0.12 0.134 0.237 0.060l2.817-1.787c0.116-0.074 0.199-0.221 0.184-0.327s-0.119-0.135-0.235-0.061z"></path>
<path fill="#455a64" style="fill: var(--color10, #455a64)" d="M24.455 17.109l-2.817 1.787c-0.116 0.074-0.197 0.219-0.177 0.323s0.13 0.127 0.244 0.053l2.817-1.787c0.117-0.074 0.195-0.218 0.175-0.322s-0.121-0.128-0.241-0.054z"></path>
<path fill="#455a64" style="fill: var(--color10, #455a64)" d="M24.684 18.221l-2.817 1.787c-0.116 0.074-0.192 0.215-0.162 0.315s0.14 0.122 0.257 0.047l2.817-1.787c0.117-0.074 0.19-0.215 0.162-0.315s-0.14-0.122-0.257-0.047z"></path>
<path fill="#455a64" style="fill: var(--color10, #455a64)" d="M24.981 19.292l-6.866 4.362c-0.116 0.074-0.187 0.212-0.155 0.307s0.153 0.113 0.269 0.039l6.866-4.362c0.117-0.074 0.184-0.211 0.153-0.308s-0.154-0.113-0.266-0.039z"></path>
<path fill="#455a64" style="fill: var(--color10, #455a64)" d="M25.343 20.315l-6.865 4.362c-0.117 0.074-0.181 0.208-0.142 0.299s0.163 0.105 0.281 0.031l6.866-4.362c0.117-0.074 0.18-0.208 0.14-0.299s-0.163-0.105-0.28-0.031z"></path>
<path fill="#455a64" style="fill: var(--color10, #455a64)" d="M25.793 21.29l-6.866 4.362c-0.117 0.074-0.175 0.205-0.128 0.291s0.179 0.096 0.296 0.021l6.861-4.362c0.116-0.073 0.172-0.203 0.126-0.29s-0.175-0.097-0.288-0.023z"></path>
<path fill="#455a64" style="fill: var(--color10, #455a64)" d="M26.319 22.213l-6.865 4.361c-0.117 0.074-0.169 0.202-0.116 0.283s0.192 0.089 0.309 0.014l6.865-4.362c0.117-0.074 0.167-0.2 0.115-0.282s-0.19-0.088-0.307-0.014z"></path>
<path fill="#455a64" style="fill: var(--color10, #455a64)" d="M26.918 23.089l-6.866 4.361c-0.116 0.074-0.163 0.198-0.104 0.276s0.202 0.081 0.319 0.007l6.866-4.364c0.116-0.074 0.163-0.197 0.102-0.274s-0.201-0.083-0.317-0.006z"></path>
<path fill="#455a64" style="fill: var(--color10, #455a64)" d="M27.58 23.924l-6.863 4.361c-0.117 0.074-0.162 0.196-0.094 0.268s0.213 0.074 0.329 0l6.866-4.362c0.117-0.074 0.157-0.194 0.093-0.268s-0.211-0.072-0.33 0.001z"></path>
<path fill="#455a64" style="fill: var(--color10, #455a64)" d="M28.311 24.722l-6.866 4.361c-0.116 0.074-0.154 0.193-0.081 0.264s0.223 0.068 0.34-0.006l6.86-4.362c0.116-0.074 0.153-0.19 0.081-0.262s-0.22-0.069-0.334 0.005z"></path>
<path fill="#02897a" style="fill: var(--color4, #02897a)" d="M20.276 15.992l-3.239 2.056c0.036 1.291 0.17 3.154 0.66 5.030l3.24-2.055c-0.491-1.876-0.625-3.739-0.661-5.030z"></path>
<path fill="#11b5e4" style="fill: var(--color9, #11b5e4)" opacity="0.8" d="M20.276 15.992l-3.239 2.056c0.036 1.291 0.17 3.154 0.66 5.030l3.24-2.055c-0.491-1.876-0.625-3.739-0.661-5.030z"></path>
<path fill="#02897a" style="fill: var(--color4, #02897a)" d="M18.357 17.763c0.004-0.083-0.007-0.167-0.035-0.245s-0.069-0.149-0.123-0.207l-1.163 0.738c0.010 0.341 0.026 0.723 0.054 1.134 0.151 0.019 0.304-0.012 0.439-0.089 0.457-0.231 0.827-0.828 0.827-1.331z"></path>
<path fill="#fff" style="fill: var(--color6, #fff)" opacity="0.6" d="M18.357 17.763c0.004-0.083-0.007-0.167-0.035-0.245s-0.069-0.149-0.123-0.207l-1.163 0.738c0.010 0.341 0.026 0.723 0.054 1.134 0.151 0.019 0.304-0.012 0.439-0.089 0.457-0.231 0.827-0.828 0.827-1.331z"></path>
<path fill="#02897a" style="fill: var(--color4, #02897a)" d="M20.661 19.788c-0.216-0.299-0.655-1.224-0.843-1.627-0.007-0.016-0.019-0.029-0.033-0.038s-0.031-0.012-0.047-0.011-0.032 0.009-0.044 0.020c-0.012 0.011-0.022 0.027-0.026 0.044-0.203 0.763-0.321 1.551-0.351 2.346-0.27-0.236-0.503-0.521-0.688-0.842-0.008-0.012-0.019-0.022-0.032-0.028s-0.027-0.008-0.040-0.005c-0.014 0.003-0.026 0.009-0.036 0.020s-0.017 0.024-0.021 0.038c-0.354 1.501-0.176 2.977-0.176 2.977l2.613-1.66c-0.109-0.415-0.199-0.828-0.275-1.233z"></path>
<path fill="#fff" style="fill: var(--color6, #fff)" opacity="0.6" d="M20.661 19.788c-0.216-0.299-0.655-1.224-0.843-1.627-0.007-0.016-0.019-0.029-0.033-0.038s-0.031-0.012-0.047-0.011-0.032 0.009-0.044 0.020c-0.012 0.011-0.022 0.027-0.026 0.044-0.203 0.763-0.321 1.551-0.351 2.346-0.27-0.236-0.503-0.521-0.688-0.842-0.008-0.012-0.019-0.022-0.032-0.028s-0.027-0.008-0.040-0.005c-0.014 0.003-0.026 0.009-0.036 0.020s-0.017 0.024-0.021 0.038c-0.354 1.501-0.176 2.977-0.176 2.977l2.613-1.66c-0.109-0.415-0.199-0.828-0.275-1.233z"></path>
</symbol>
<symbol id="icon-amico_2" viewBox="0 0 35 32">
<path fill="#ebebeb" style="fill: var(--color3, #ebebeb)" d="M8.121 28.901c5.729 3.279 15.018 3.279 20.747 0s5.73-8.596 0-11.875-15.018-3.28-20.747 0c-5.729 3.28-5.729 8.596 0 11.875z"></path>
<path fill="#02897a" style="fill: var(--color4, #02897a)" d="M30.554 20.766l-0.836-0.521c0 0-0.205-1.92-0.069-3.406 0.192-2.090 1.45-4.602 2.951-4.013s-0.689 2.722-1.175 4.494c-0.486 1.771-0.871 3.447-0.871 3.447z"></path>
<path fill="#000" style="fill: var(--color5, #000)" opacity="0.1" d="M30.554 20.766l-0.836-0.521c0 0-0.205-1.92-0.069-3.406 0.192-2.090 1.45-4.602 2.951-4.013s-0.689 2.722-1.175 4.494c-0.486 1.771-0.871 3.447-0.871 3.447z"></path>
<path fill="#fff" style="fill: var(--color6, #fff)" d="M30.119 20.53c-0.008 0-0.015-0.003-0.021-0.008s-0.010-0.013-0.011-0.021c-0.284-2.345 0.494-5.888 2.065-7.232 0.003-0.003 0.007-0.005 0.011-0.006s0.008-0.002 0.012-0.001c0.004 0 0.008 0.002 0.012 0.004s0.007 0.005 0.009 0.009 0.008 0.016 0.007 0.025c-0.001 0.009-0.005 0.017-0.012 0.023-1.554 1.33-2.322 4.846-2.041 7.169 0.001 0.009-0.001 0.018-0.006 0.026s-0.013 0.012-0.021 0.013h-0.004z"></path>
<path fill="#02897a" style="fill: var(--color4, #02897a)" d="M31 21.136l-0.594-0.369c0 0-0.101-1.317 0.501-2.918 0.524-1.389 1.825-2.549 2.48-2.306s0.638 0.741 0.319 1.263c-0.319 0.522-2.26 1.766-2.705 4.33z"></path>
<path fill="#fff" style="fill: var(--color6, #fff)" d="M30.632 21.17c-0.004-0-0.008-0.001-0.012-0.003s-0.007-0.005-0.010-0.008-0.005-0.007-0.006-0.012c-0.001-0.004-0.002-0.009-0.002-0.013 0.196-3.279 1.743-4.891 2.672-5.137 0.008-0.002 0.017-0.001 0.025 0.004s0.013 0.012 0.015 0.021c0.002 0.009 0.001 0.018-0.004 0.026s-0.011 0.013-0.020 0.016c-0.979 0.26-2.44 2.006-2.623 5.075-0 0.005-0.001 0.009-0.003 0.013s-0.005 0.008-0.008 0.011c-0.003 0.003-0.007 0.005-0.011 0.007s-0.009 0.002-0.013 0.001z"></path>
<path fill="#02897a" style="fill: var(--color4, #02897a)" d="M6.484 21.021c0 0 0.111-1.925-0.932-3.245s-2.401-1.315-2.85-1.069-0.751 0.948 0.022 1.451c0.773 0.503 2.418 1.509 2.692 2.407l1.069 0.456z"></path>
<path fill="#000" style="fill: var(--color5, #000)" opacity="0.1" d="M6.484 21.021c0 0 0.111-1.925-0.932-3.245s-2.401-1.315-2.85-1.069-0.751 0.948 0.022 1.451c0.773 0.503 2.418 1.509 2.692 2.407l1.069 0.456z"></path>
<path fill="#fff" style="fill: var(--color6, #fff)" d="M5.993 20.539c-0.010-0-0.020-0.004-0.027-0.011s-0.012-0.017-0.013-0.028c-0.215-2.13-2.2-3.31-2.991-3.444-0.005-0.001-0.010-0.003-0.015-0.006s-0.009-0.007-0.012-0.012c-0.003-0.005-0.006-0.010-0.007-0.015s-0.002-0.011-0.001-0.017c0.001-0.006 0.003-0.011 0.005-0.016s0.006-0.009 0.011-0.013c0.004-0.003 0.009-0.006 0.014-0.007s0.011-0.002 0.016-0.001c0.81 0.136 2.84 1.343 3.060 3.521 0.001 0.006 0 0.012-0.001 0.017s-0.004 0.011-0.007 0.015c-0.003 0.004-0.008 0.008-0.012 0.011s-0.010 0.004-0.015 0.005l-0.004 0.001z"></path>
<path fill="#02897a" style="fill: var(--color4, #02897a)" d="M5.607 20.050c-0.262-0.639-0.557-0.926-1.407-0.773s-0.729 0.129-1.769-0.156c-0.439-0.12-0.932-0.139-1.353 0.064-0.355 0.174-0.621 0.521-0.277 0.891 0.387 0.413 0.964 0.555 1.392 0.919 0.097 0.074 0.174 0.173 0.224 0.289 0.113 0.307-0.113 0.654-0.047 0.976s0.381 0.494 0.678 0.515c0.296 0.021 0.589-0.075 0.884-0.111s0.628 0 0.832 0.235c0.219 0.249 0.224 0.648 0.428 0.913 0.304 0.397 1.053 0.507 1.458 0.26l1.060-0.656c0.7-1.012-0.405-1.815-0.984-2.601-0.281-0.383-0.96-0.381-1.117-0.766z"></path>
<path fill="#fff" style="fill: var(--color6, #fff)" d="M7.051 22.805c-0.007 0-0.014-0.002-0.020-0.005s-0.011-0.009-0.014-0.015c-1.209-2.1-4.501-3.163-5.665-3.25-0.011-0.001-0.020-0.006-0.027-0.015s-0.010-0.020-0.010-0.031c0.001-0.011 0.006-0.022 0.014-0.030s0.018-0.012 0.029-0.011c1.18 0.087 4.503 1.165 5.728 3.294 0.005 0.010 0.007 0.022 0.004 0.033s-0.009 0.021-0.018 0.027c-0.007 0.003-0.014 0.005-0.021 0.004z"></path>
<path fill="#fff" style="fill: var(--color6, #fff)" d="M3.221 21.815c-0.006 0-0.013-0.001-0.018-0.004s-0.010-0.008-0.014-0.013c-0.006-0.009-0.009-0.021-0.008-0.032s0.007-0.022 0.016-0.029c0.042-0.034 1.046-0.824 2.024-0.84 0.005-0 0.011 0.001 0.015 0.003s0.009 0.005 0.013 0.009 0.007 0.009 0.009 0.014c0.002 0.005 0.003 0.011 0.003 0.016s-0.001 0.011-0.003 0.017-0.005 0.010-0.008 0.014c-0.004 0.004-0.008 0.007-0.013 0.010s-0.010 0.004-0.015 0.004c-0.95 0.015-1.965 0.815-1.975 0.822-0.007 0.006-0.017 0.009-0.026 0.009z"></path>
<path fill="#37474f" style="fill: var(--color11, #37474f)" d="M6.976 23.543c0.009 0.126 0.045 0.249 0.106 0.357s0.145 0.2 0.245 0.267l9.825 6.083c0.109 0.059 0.229 0.090 0.351 0.090s0.242-0.031 0.351-0.090l13.442-8.323c0.106-0.060 0.195-0.15 0.256-0.26s0.095-0.236 0.095-0.365c0-0.128-0.033-0.254-0.095-0.364s-0.151-0.2-0.256-0.26l-9.824-6.078c-0.109-0.059-0.229-0.090-0.351-0.090s-0.242 0.031-0.351 0.090l-13.443 8.32c-0.1 0.067-0.184 0.158-0.244 0.267s-0.097 0.23-0.106 0.356z"></path>
<path fill="#263238" style="fill: var(--color12, #263238)" d="M11.029 20.627l-3.703 2.294c-0.106 0.060-0.195 0.15-0.256 0.26s-0.095 0.236-0.095 0.365c0 0.128 0.033 0.254 0.095 0.364s0.151 0.2 0.256 0.26l9.825 6.083c0.108 0.060 0.229 0.090 0.351 0.087v-9.712h-6.473z"></path>
<path fill="#455a64" style="fill: var(--color10, #455a64)" d="M6.646 22.933c-0.098-0.071-0.178-0.166-0.235-0.277s-0.089-0.235-0.093-0.361v-12.573c0.007-0.13 0.042-0.257 0.103-0.371s0.146-0.209 0.248-0.281l13.442-8.323c0.102-0.068 0.218-0.106 0.338-0.108s0.238 0.030 0.342 0.095c0.104 0.064 0.189 0.157 0.247 0.27s0.086 0.24 0.082 0.368v12.573c-0.007 0.13-0.042 0.257-0.103 0.371s-0.146 0.209-0.248 0.281l-13.442 8.324c-0.105 0.059-0.221 0.091-0.339 0.093s-0.235-0.026-0.341-0.081z"></path>
<path fill="#263238" style="fill: var(--color12, #263238)" d="M7.963 10.307l-1.543-0.955c-0.061 0.113-0.095 0.24-0.098 0.371v12.572c0.004 0.127 0.036 0.25 0.093 0.361s0.138 0.206 0.235 0.277c0.106 0.055 0.223 0.082 0.341 0.080s0.234-0.035 0.338-0.094l1.534-0.949-0.901-11.663z"></path>
<path fill="#37474f" style="fill: var(--color11, #37474f)" d="M6.976 10.13v12.572c0 0.24 0.157 0.337 0.351 0.217l13.442-8.322c0.102-0.071 0.187-0.168 0.248-0.281s0.096-0.24 0.103-0.37v-12.573c0-0.24-0.157-0.337-0.351-0.217l-13.442 8.323c-0.102 0.071-0.187 0.167-0.248 0.281s-0.096 0.24-0.103 0.371z"></path>
<path fill="#455a64" style="fill: var(--color10, #455a64)" d="M7.326 23.355l9.825 6.078c0.109 0.059 0.229 0.090 0.351 0.090s0.242-0.031 0.351-0.090l13.442-8.323c0.194-0.12 0.194-0.314 0-0.434l-9.824-6.078c-0.109-0.059-0.229-0.090-0.351-0.090s-0.242 0.031-0.351 0.090l-13.443 8.323c-0.194 0.118-0.194 0.313 0 0.434z"></path>
<path fill="#fff" style="fill: var(--color6, #fff)" d="M7.515 10.176l13.066-8.088c0.116-0.072 0.211-0.014 0.211 0.13v10.883c-0.004 0.078-0.025 0.154-0.062 0.222s-0.087 0.126-0.149 0.168l-13.066 8.088c-0.117 0.072-0.211 0.014-0.211-0.13v-10.883c0.004-0.078 0.025-0.155 0.062-0.222s0.088-0.126 0.149-0.168z"></path>
<path fill="#263238" style="fill: var(--color12, #263238)" d="M8.466 23.028l12.478-7.728c0.054-0.030 0.114-0.045 0.175-0.045s0.121 0.015 0.175 0.045l0.639 0.395c0.021 0.008 0.040 0.022 0.053 0.042s0.020 0.043 0.020 0.067c0 0.024-0.007 0.047-0.020 0.067s-0.031 0.034-0.053 0.042l-12.48 7.727c-0.054 0.029-0.114 0.045-0.175 0.045s-0.121-0.015-0.175-0.045l-0.636-0.394c-0.021-0.008-0.040-0.022-0.053-0.042s-0.020-0.043-0.020-0.067c0-0.024 0.007-0.047 0.020-0.067s0.031-0.034 0.053-0.042z"></path>
<path fill="#263238" style="fill: var(--color12, #263238)" d="M10.112 24.050l12.477-7.728c0.055-0.030 0.115-0.045 0.176-0.045s0.121 0.015 0.176 0.045l3.925 2.431c0.021 0.008 0.040 0.022 0.052 0.042s0.020 0.043 0.020 0.067-0.007 0.047-0.020 0.067c-0.013 0.019-0.031 0.034-0.052 0.042l-12.463 7.712c-0.055 0.030-0.115 0.045-0.176 0.045s-0.121-0.015-0.176-0.045l-3.939-2.42c-0.020-0.008-0.037-0.023-0.050-0.042s-0.019-0.042-0.019-0.065c0-0.023 0.007-0.046 0.019-0.065s0.030-0.034 0.050-0.042z"></path>
<path fill="#455a64" style="fill: var(--color10, #455a64)" d="M21.296 19.795l0.391-0.242c0.016-0.010 0.015-0.027 0-0.038l-0.452-0.28c-0.010-0.005-0.020-0.008-0.031-0.008s-0.021 0.003-0.031 0.008l-0.39 0.242c-0.017 0.010-0.016 0.027 0 0.038l0.452 0.28c0.010 0.005 0.020 0.008 0.031 0.008s0.021-0.003 0.031-0.008zM20.526 18.84l-0.39 0.242c-0.017 0.010-0.016 0.027 0 0.038l0.452 0.28c0.010 0.005 0.020 0.008 0.031 0.008s0.021-0.003 0.031-0.008l0.391-0.242c0.016-0.010 0.015-0.028 0-0.038l-0.453-0.28c-0.010-0.005-0.020-0.008-0.031-0.008s-0.021 0.003-0.031 0.008zM19.264 19.621l-0.662 0.409c-0.016 0.010-0.015 0.028 0 0.039l0.452 0.28c0.010 0.005 0.020 0.008 0.031 0.008s0.021-0.003 0.031-0.008l0.661-0.409c0.017-0.010 0.015-0.028 0-0.038l-0.452-0.28c-0.010-0.005-0.020-0.008-0.031-0.008s-0.021 0.003-0.031 0.008zM19.955 19.193l-0.39 0.242c-0.017 0.010-0.016 0.028 0 0.038l0.452 0.28c0.010 0.005 0.020 0.008 0.031 0.008s0.022-0.003 0.031-0.008l0.391-0.242c0.016-0.010 0.015-0.027 0-0.038l-0.453-0.286c-0.010-0.005-0.020-0.008-0.031-0.008s-0.022 0.003-0.031 0.008v0.006zM18.422 20.142l-0.39 0.241c-0.017 0.010-0.015 0.028 0 0.039l0.452 0.28c0.010 0.005 0.020 0.008 0.031 0.008s0.021-0.003 0.031-0.008l0.391-0.242c0.016-0.010 0.015-0.028 0-0.038l-0.452-0.28c-0.010-0.005-0.020-0.008-0.031-0.008s-0.021 0.003-0.031 0.008zM17.855 20.495l-0.39 0.242c-0.017 0.010-0.015 0.027 0 0.038l0.452 0.28c0.010 0.005 0.020 0.008 0.031 0.008s0.021-0.003 0.031-0.008l0.391-0.242c0.016-0.010 0.015-0.028 0-0.038l-0.457-0.286c-0.010-0.005-0.020-0.008-0.031-0.008s-0.022 0.003-0.031 0.008l0.004 0.006zM19.632 21.633l0.39-0.242c0.017-0.010 0.015-0.027 0-0.038l-0.452-0.28c-0.009-0.005-0.020-0.008-0.031-0.008s-0.021 0.003-0.031 0.008l-0.391 0.242c-0.016 0.010-0.015 0.027 0 0.038l0.452 0.28c0.009 0.004 0.020 0.006 0.030 0.005s0.020-0.004 0.029-0.009l0.004 0.004zM19.061 21.986l0.391-0.242c0.016-0.010 0.015-0.027 0-0.038l-0.452-0.28c-0.010-0.005-0.020-0.008-0.031-0.008s-0.022 0.003-0.031 0.008l-0.39 0.242c-0.017 0.010-0.015 0.028 0 0.038l0.452 0.28c0.009 0.004 0.019 0.006 0.029 0.005s0.020-0.004 0.028-0.009l0.004 0.004zM18.49 22.34l0.391-0.241c0.016-0.010 0.015-0.028 0-0.039l-0.452-0.28c-0.010-0.005-0.020-0.008-0.031-0.008s-0.021 0.003-0.031 0.008l-0.39 0.242c-0.017 0.010-0.015 0.028 0 0.038l0.451 0.28c0.009 0.004 0.020 0.006 0.030 0.005s0.020-0.004 0.029-0.009l0.004 0.004zM17.923 22.693l0.391-0.241c0.016-0.010 0.015-0.028 0-0.039l-0.452-0.28c-0.010-0.005-0.020-0.008-0.031-0.008s-0.022 0.003-0.031 0.008l-0.39 0.241c-0.017 0.010-0.016 0.028 0 0.039l0.452 0.28c0.018 0.006 0.037 0.005 0.053-0.004l0.008 0.004zM20.734 20.154l0.391-0.242c0.016-0.010 0.015-0.027 0-0.038l-0.452-0.28c-0.010-0.005-0.020-0.008-0.031-0.008s-0.021 0.003-0.031 0.008l-0.39 0.242c-0.017 0.010-0.016 0.028 0 0.038l0.452 0.28c0.009 0.003 0.018 0.004 0.027 0.004s0.018-0.004 0.026-0.008l0.008 0.004zM20.207 21.283l0.871-0.54c0.016-0.010 0.015-0.027 0-0.038l-1.097-0.679c-0.010-0.005-0.020-0.008-0.031-0.008s-0.021 0.003-0.031 0.008l-0.45 0.28c-0.017 0.010-0.015 0.027 0 0.038l0.581 0.36c0.018 0.011 0.019 0.029 0 0.039l-0.367 0.214c-0.016 0.010-0.015 0.027 0 0.038l0.454 0.277c0.009 0.006 0.020 0.010 0.031 0.010s0.022-0.001 0.032-0.006l0.008 0.008zM17.288 20.849l-0.39 0.242c-0.017 0.010-0.016 0.027 0 0.038l0.452 0.28c0.010 0.005 0.020 0.008 0.031 0.008s0.021-0.003 0.031-0.008l0.391-0.242c0.016-0.010 0.015-0.027 0-0.038l-0.452-0.28c-0.010-0.008-0.022-0.012-0.035-0.013s-0.025 0.002-0.036 0.009l0.008 0.004zM16.721 21.202l-0.403 0.242c-0.016 0.010-0.015 0.028 0 0.038l0.452 0.28c0.010 0.005 0.020 0.008 0.031 0.008s0.022-0.003 0.031-0.008l0.391-0.242c0.016-0.010 0.015-0.027 0-0.038l-0.455-0.282c-0.009-0.005-0.019-0.008-0.029-0.008s-0.020 0.002-0.030 0.006l0.012 0.004zM13.853 25.162c0.010 0.005 0.020 0.008 0.031 0.008s0.022-0.003 0.031-0.008l0.391-0.242c0.016-0.010 0.015-0.027 0-0.038l-0.454-0.278c-0.010-0.005-0.020-0.008-0.031-0.008s-0.022 0.003-0.031 0.008l-0.39 0.242c-0.017 0.010-0.016 0.028 0 0.038l0.453 0.278zM12.139 24.026l-0.391 0.242c-0.016 0.010-0.015 0.027 0 0.038l0.452 0.28c0.010 0.005 0.020 0.008 0.031 0.008s0.022-0.003 0.031-0.008l0.391-0.242c0.016-0.010 0.015-0.027 0-0.038l-0.452-0.28c-0.009-0.005-0.020-0.008-0.030-0.008s-0.021 0.003-0.030 0.008h-0.002zM13.058 24.855c0.010 0.005 0.020 0.008 0.031 0.008s0.022-0.003 0.031-0.008l0.39-0.242c0.017-0.010 0.015-0.027 0-0.038l-0.451-0.28c-0.010-0.005-0.020-0.008-0.031-0.008s-0.021 0.003-0.031 0.008l-0.391 0.242c-0.016 0.010-0.015 0.028 0 0.038l0.452 0.28zM14.861 25.376l0.391-0.242c0.016-0.010 0.015-0.027 0-0.038l-0.452-0.28c-0.010-0.005-0.020-0.008-0.031-0.008s-0.022 0.003-0.031 0.008l-0.39 0.242c-0.017 0.010-0.015 0.027 0 0.038l0.451 0.28c0.010 0.006 0.021 0.009 0.032 0.009s0.022-0.003 0.033-0.008l-0.002-0.001zM14.228 25.724c0.010 0.005 0.020 0.008 0.031 0.008s0.022-0.003 0.031-0.008l0.391-0.242c0.016-0.010 0.015-0.027 0-0.038l-0.452-0.28c-0.010-0.005-0.020-0.008-0.031-0.008s-0.021 0.003-0.031 0.008l-0.39 0.242c-0.017 0.010-0.016 0.028 0 0.038l0.451 0.28zM12.71 23.667l-0.39 0.242c-0.017 0.010-0.016 0.027 0 0.038l0.452 0.28c0.010 0.005 0.020 0.008 0.031 0.008s0.022-0.003 0.031-0.008l0.391-0.242c0.016-0.010 0.015-0.028 0-0.038l-0.452-0.28c-0.010-0.004-0.020-0.006-0.031-0.005s-0.021 0.004-0.030 0.010l-0.002-0.005zM15.565 21.9l-0.391 0.241c-0.016 0.010-0.015 0.028 0 0.038l0.452 0.28c0.010 0.005 0.020 0.008 0.031 0.008s0.021-0.003 0.031-0.008l0.39-0.241c0.017-0.010 0.016-0.028 0-0.039l-0.452-0.28c-0.010-0.004-0.020-0.006-0.030-0.005s-0.020 0.004-0.029 0.010l-0.002-0.005zM13.286 23.319l-0.39 0.241c-0.017 0.010-0.016 0.028 0 0.039l0.452 0.28c0.010 0.005 0.020 0.008 0.031 0.008s0.021-0.003 0.031-0.008l0.391-0.242c0.016-0.010 0.015-0.028 0-0.038l-0.452-0.28c-0.010-0.005-0.021-0.008-0.032-0.008s-0.022 0.003-0.031 0.008zM16.141 21.551l-0.394 0.241c-0.016 0.010-0.015 0.028 0 0.038l0.452 0.28c0.010 0.005 0.020 0.008 0.031 0.008s0.022-0.003 0.031-0.008l0.39-0.241c0.017-0.010 0.016-0.028 0-0.039l-0.45-0.276c-0.010-0.006-0.020-0.009-0.031-0.009s-0.022 0.002-0.032 0.007h0.003zM15 22.259l-0.391 0.241c-0.016 0.010-0.015 0.028 0 0.039l0.452 0.28c0.010 0.005 0.020 0.008 0.031 0.008s0.021-0.003 0.031-0.008l0.39-0.241c0.017-0.010 0.015-0.028 0-0.039l-0.451-0.28c-0.010-0.006-0.021-0.009-0.033-0.009s-0.023 0.003-0.033 0.009h0.003zM14.428 22.612l-0.39 0.241c-0.017 0.010-0.015 0.028 0 0.039l0.452 0.28c0.010 0.005 0.020 0.008 0.031 0.008s0.021-0.003 0.031-0.008l0.39-0.241c0.016-0.010 0.015-0.028 0-0.039l-0.452-0.28c-0.010-0.006-0.021-0.009-0.033-0.009s-0.023 0.003-0.033 0.009h0.003zM13.853 22.966l-0.39 0.241c-0.017 0.010-0.015 0.028 0 0.039l0.451 0.28c0.010 0.005 0.020 0.008 0.031 0.008s0.022-0.003 0.031-0.008l0.391-0.241c0.016-0.010 0.015-0.028 0-0.039l-0.452-0.28c-0.010-0.005-0.020-0.008-0.031-0.008s-0.021 0.003-0.031 0.008zM16.772 23.4l0.39-0.241c0.017-0.010 0.016-0.028 0-0.039l-0.453-0.286c-0.010-0.005-0.020-0.008-0.031-0.008s-0.021 0.003-0.031 0.008l-0.391 0.241c-0.016 0.010-0.015 0.028 0 0.039l0.452 0.28c0.010 0.006 0.021 0.009 0.032 0.010s0.022-0.002 0.033-0.008l-0.001 0.004zM21.789 18.058l-0.391 0.242c-0.016 0.010-0.015 0.027 0 0.038l0.452 0.28c0.010 0.005 0.020 0.008 0.031 0.008s0.022-0.003 0.031-0.008l0.39-0.242c0.017-0.010 0.016-0.027 0-0.038l-0.452-0.28c-0.010-0.005-0.020-0.008-0.031-0.008s-0.021 0.003-0.031 0.008zM21.097 18.486l-0.39 0.242c-0.017 0.010-0.015 0.027 0 0.038l0.451 0.28c0.010 0.005 0.020 0.008 0.031 0.008s0.021-0.003 0.031-0.008l0.391-0.242c0.016-0.010 0.015-0.028 0-0.038l-0.452-0.28c-0.009-0.006-0.020-0.010-0.031-0.011s-0.022 0.001-0.032 0.006l0.001 0.004zM22.36 17.705l-0.39 0.242c-0.017 0.010-0.016 0.027 0 0.038l0.452 0.28c0.010 0.005 0.020 0.008 0.031 0.008s0.022-0.003 0.031-0.008l0.391-0.242c0.016-0.010 0.015-0.028 0-0.038l-0.452-0.28c-0.010-0.007-0.021-0.011-0.033-0.012s-0.024 0.002-0.034 0.007l0.004 0.004zM19.404 20.973l0.391-0.242c0.016-0.010 0.015-0.028 0-0.038l-0.452-0.28c-0.010-0.005-0.020-0.008-0.031-0.008s-0.022 0.003-0.031 0.008l-0.39 0.242c-0.017 0.010-0.016 0.027 0 0.038l0.452 0.28c0.010 0.004 0.020 0.006 0.031 0.006s0.021-0.004 0.030-0.010l0.001 0.004zM22.993 17.353c-0.010-0.005-0.020-0.008-0.031-0.008s-0.022 0.003-0.031 0.008l-0.39 0.242c-0.017 0.010-0.016 0.027 0 0.038l0.452 0.28c0.010 0.005 0.020 0.008 0.031 0.008s0.021-0.003 0.031-0.008l0.391-0.242c0.016-0.010 0.015-0.028 0-0.038l-0.453-0.28zM17.344 23.042l0.391-0.241c0.016-0.010 0.015-0.028 0-0.039l-0.454-0.275c-0.010-0.005-0.020-0.008-0.031-0.008s-0.021 0.003-0.031 0.008l-0.39 0.241c-0.017 0.010-0.016 0.028 0 0.039l0.452 0.28c0.010 0.005 0.021 0.007 0.032 0.006s0.022-0.004 0.032-0.010zM24.346 18.708l0.391-0.242c0.016-0.010 0.015-0.027 0-0.038l-0.454-0.282c-0.010-0.005-0.020-0.008-0.031-0.008s-0.022 0.003-0.031 0.008l-0.39 0.242c-0.017 0.010-0.016 0.028 0 0.038l0.452 0.28c0.010 0.006 0.021 0.009 0.032 0.010s0.022-0.002 0.032-0.007zM23.131 18.662l0.391-0.242c0.016-0.010 0.015-0.027 0-0.038l-0.452-0.28c-0.010-0.005-0.020-0.008-0.031-0.008s-0.021 0.003-0.031 0.008l-0.39 0.242c-0.017 0.010-0.016 0.027 0 0.038l0.452 0.28c0.009 0.006 0.019 0.009 0.029 0.010s0.021-0.001 0.030-0.005l0.002-0.004zM23.639 17.748c-0.010-0.005-0.020-0.008-0.031-0.008s-0.022 0.003-0.031 0.008l-0.39 0.242c-0.017 0.010-0.016 0.027 0 0.038l0.452 0.28c0.010 0.005 0.020 0.008 0.031 0.008s0.022-0.003 0.031-0.008l0.391-0.242c0.016-0.010 0.015-0.028 0-0.038l-0.453-0.28zM23.76 17.673l1.096 0.679c0.010 0.005 0.020 0.008 0.031 0.008s0.022-0.003 0.031-0.008l0.391-0.242c0.016-0.010 0.015-0.027 0-0.038l-1.097-0.679c-0.010-0.005-0.020-0.008-0.031-0.008s-0.022 0.003-0.031 0.008l-0.39 0.242c-0.021 0.010-0.019 0.027-0.002 0.038h0.002zM22.435 18.455l-0.391 0.242c-0.016 0.010-0.015 0.028 0 0.038l0.452 0.28c0.010 0.005 0.020 0.008 0.031 0.008s0.022-0.003 0.031-0.008l0.39-0.242c0.017-0.010 0.016-0.027 0-0.038l-0.452-0.28c-0.009-0.005-0.019-0.008-0.030-0.008s-0.021 0.002-0.030 0.007l-0.002 0.002zM18.138 21.115l-0.393 0.242c-0.016 0.010-0.015 0.028 0 0.038l0.452 0.28c0.010 0.005 0.020 0.008 0.031 0.008s0.021-0.003 0.031-0.008l0.39-0.242c0.017-0.010 0.016-0.027 0-0.038l-0.452-0.28c-0.009-0.005-0.020-0.008-0.031-0.009s-0.021 0.002-0.031 0.007l0.002 0.002zM23.715 19.061c0.010 0.005 0.020 0.008 0.031 0.008s0.021-0.003 0.031-0.008l0.391-0.242c0.016-0.010 0.015-0.027 0-0.038l-0.452-0.28c-0.010-0.005-0.020-0.008-0.031-0.008s-0.021 0.003-0.031 0.008l-0.39 0.242c-0.017 0.010-0.016 0.028 0 0.038l0.451 0.28zM18.708 20.762l-0.39 0.242c-0.017 0.010-0.016 0.027 0 0.038l0.452 0.28c0.010 0.005 0.020 0.008 0.031 0.008s0.021-0.003 0.031-0.008l0.391-0.242c0.016-0.010 0.015-0.027 0-0.038l-0.452-0.28c-0.010-0.006-0.021-0.009-0.032-0.010s-0.023 0.002-0.033 0.008l0.002 0.002zM14.428 24.81c0.010 0.005 0.020 0.008 0.031 0.008s0.021-0.003 0.031-0.008l0.391-0.242c0.016-0.010 0.015-0.027 0-0.038l-0.452-0.28c-0.010-0.005-0.020-0.008-0.031-0.008s-0.022 0.003-0.031 0.008l-0.39 0.242c-0.017 0.010-0.015 0.027 0 0.038l0.451 0.28zM13.57 23.942l-0.391 0.242c-0.016 0.010-0.015 0.027 0 0.038l0.452 0.28c0.010 0.005 0.020 0.008 0.031 0.008s0.021-0.003 0.031-0.008l0.39-0.242c0.017-0.010 0.016-0.027 0-0.038l-0.452-0.28c-0.010-0.006-0.021-0.008-0.032-0.008s-0.022 0.003-0.032 0.008h0.002zM15.062 24.457l0.39-0.242c0.016-0.010 0.015-0.028 0-0.038l-0.452-0.28c-0.010-0.005-0.020-0.008-0.031-0.008s-0.022 0.003-0.031 0.008l-0.394 0.24c-0.016 0.010-0.015 0.027 0 0.038l0.452 0.28c0.010 0.006 0.021 0.010 0.032 0.010s0.023-0.002 0.033-0.008h0.002zM15.633 24.103l0.39-0.242c0.017-0.010 0.015-0.028 0-0.038l-0.451-0.28c-0.010-0.005-0.020-0.008-0.031-0.008s-0.022 0.003-0.031 0.008l-0.391 0.241c-0.016 0.010-0.015 0.028 0 0.039l0.452 0.28c0.010 0.005 0.021 0.008 0.032 0.008s0.022-0.003 0.032-0.008h-0.002zM16.2 23.749l0.39-0.241c0.017-0.010 0.016-0.028 0-0.038l-0.452-0.28c-0.010-0.005-0.020-0.008-0.031-0.008s-0.021 0.003-0.031 0.008l-0.391 0.241c-0.016 0.010-0.015 0.028 0 0.039l0.452 0.28c0.010 0.006 0.021 0.009 0.032 0.009s0.022-0.003 0.032-0.009h-0.002zM14.136 23.588l-0.391 0.242c-0.016 0.010-0.015 0.027 0 0.038l0.452 0.28c0.010 0.005 0.020 0.008 0.031 0.008s0.021-0.003 0.031-0.008l0.391-0.242c0.016-0.010 0.015-0.028 0-0.038l-0.452-0.28c-0.009-0.005-0.020-0.008-0.030-0.008s-0.021 0.003-0.030 0.008h-0.002zM14.707 23.235l-0.39 0.241c-0.017 0.010-0.016 0.028 0 0.039l0.452 0.28c0.010 0.005 0.020 0.008 0.031 0.008s0.021-0.003 0.031-0.008l0.398-0.241c0.016-0.010 0.015-0.028 0-0.038l-0.452-0.28c-0.010-0.007-0.022-0.010-0.034-0.011s-0.024 0.003-0.034 0.009h-0.002zM16.992 21.821l-0.385 0.241c-0.016 0.010-0.015 0.028 0 0.039l0.452 0.28c0.010 0.005 0.020 0.008 0.031 0.008s0.021-0.003 0.031-0.008l0.39-0.241c0.017-0.010 0.015-0.028 0-0.039l-0.451-0.28c-0.010-0.006-0.021-0.009-0.033-0.009s-0.023 0.003-0.033 0.009h-0.002zM16.42 22.175l-0.39 0.241c-0.016 0.010-0.015 0.028 0 0.039l0.452 0.28c0.010 0.005 0.020 0.008 0.031 0.008s0.021-0.003 0.031-0.008l0.39-0.241c0.017-0.010 0.015-0.028 0-0.039l-0.452-0.28c-0.009-0.005-0.020-0.007-0.030-0.007s-0.021 0.002-0.030 0.007h-0.002zM17.563 21.467l-0.39 0.242c-0.016 0.010-0.015 0.028 0 0.038l0.452 0.28c0.010 0.005 0.020 0.008 0.031 0.008s0.021-0.003 0.031-0.008l0.39-0.242c0.017-0.010 0.016-0.027 0-0.038l-0.452-0.28c-0.009-0.005-0.020-0.008-0.030-0.008s-0.021 0.002-0.030 0.007h-0.002zM15.278 22.882l-0.39 0.241c-0.017 0.010-0.016 0.028 0 0.039l0.452 0.28c0.010 0.005 0.020 0.008 0.031 0.008s0.021-0.003 0.031-0.008l0.391-0.242c0.016-0.010 0.015-0.028 0-0.038l-0.452-0.28c-0.010-0.005-0.020-0.007-0.030-0.007s-0.021 0.003-0.030 0.008h-0.002zM15.849 22.528l-0.39 0.241c-0.017 0.010-0.015 0.028 0 0.039l0.452 0.28c0.009 0.005 0.020 0.008 0.031 0.008s0.021-0.003 0.031-0.008l0.391-0.241c0.016-0.010 0.015-0.028 0-0.039l-0.452-0.28c-0.009-0.005-0.020-0.007-0.030-0.007s-0.021 0.002-0.030 0.007h-0.002zM15.433 25.024l0.39-0.242c0.016-0.010 0.015-0.028 0-0.038l-0.452-0.28c-0.010-0.005-0.020-0.008-0.031-0.008s-0.022 0.003-0.031 0.008l-0.39 0.242c-0.017 0.010-0.015 0.027 0 0.038l0.452 0.28c0.010 0.006 0.021 0.009 0.032 0.009s0.022-0.003 0.032-0.009h-0.002zM12.084 24.657l-0.452-0.28c-0.010-0.005-0.020-0.008-0.031-0.008s-0.021 0.003-0.031 0.008l-0.389 0.244c-0.016 0.010-0.015 0.027 0 0.038l0.452 0.28c0.010 0.005 0.020 0.008 0.031 0.008s0.022-0.003 0.031-0.008l0.39-0.242c0.018-0.008 0.017-0.025-0.001-0.040zM12.94 24.927l-0.452-0.28c-0.010-0.005-0.020-0.008-0.031-0.008s-0.021 0.003-0.031 0.008l-0.598 0.374c-0.016 0.010-0.015 0.028 0 0.038l0.452 0.28c0.010 0.005 0.020 0.008 0.031 0.008s0.021-0.003 0.031-0.008l0.601-0.372c0.019-0.009 0.014-0.026-0.004-0.037v-0.004zM11.391 24.116l-0.454-0.276c-0.010-0.005-0.020-0.008-0.031-0.008s-0.022 0.003-0.031 0.008l-0.479 0.296c-0.016 0.010-0.015 0.028 0 0.039l0.452 0.28c0.010 0.005 0.020 0.008 0.031 0.008s0.021-0.003 0.031-0.008l0.48-0.297c0.019-0.010 0.019-0.027 0.001-0.038v-0.003zM11.76 23.888c0.010 0.005 0.020 0.008 0.031 0.008s0.021-0.003 0.031-0.008l0.39-0.242c0.017-0.010 0.016-0.027 0-0.038l-0.452-0.28c-0.010-0.005-0.020-0.008-0.031-0.008s-0.021 0.003-0.031 0.008l-0.391 0.242c-0.016 0.010-0.015 0.028 0 0.038l0.453 0.28zM13.736 25.233l-0.449-0.276c-0.010-0.005-0.020-0.008-0.031-0.008s-0.021 0.003-0.031 0.008l-0.752 0.465c-0.016 0.010-0.015 0.028 0 0.038l0.452 0.28c0.010 0.005 0.020 0.008 0.031 0.008s0.021-0.003 0.031-0.008l0.751-0.465c0.016-0.010 0.015-0.028-0.002-0.039v-0.003zM14.111 25.8l-0.452-0.274c-0.010-0.005-0.020-0.008-0.031-0.008s-0.021 0.003-0.031 0.008l-0.481 0.298c-0.016 0.010-0.015 0.028 0 0.039l0.452 0.28c0.010 0.005 0.020 0.008 0.031 0.008s0.021-0.003 0.031-0.008l0.481-0.298c0.019-0.012 0.018-0.029 0-0.041v-0.004zM16.005 21.26c0.010 0.005 0.020 0.008 0.031 0.008s0.022-0.003 0.031-0.008l0.39-0.241c0.017-0.010 0.015-0.028 0-0.039l-0.452-0.28c-0.010-0.005-0.020-0.008-0.031-0.008s-0.021 0.003-0.031 0.008l-0.39 0.246c-0.016 0.010-0.015 0.028 0 0.038l0.452 0.276zM14.863 21.967c0.010 0.005 0.020 0.008 0.031 0.008s0.021-0.003 0.031-0.008l0.391-0.241c0.016-0.010 0.015-0.028 0-0.039l-0.452-0.28c-0.010-0.005-0.020-0.008-0.031-0.008s-0.021 0.003-0.031 0.008l-0.39 0.241c-0.017 0.010-0.015 0.028 0 0.039l0.451 0.28zM12.331 23.538c0.010 0.005 0.020 0.008 0.031 0.008s0.021-0.003 0.031-0.008l0.39-0.242c0.017-0.010 0.016-0.027 0-0.038l-0.452-0.28c-0.010-0.005-0.020-0.008-0.031-0.008s-0.021 0.003-0.031 0.008l-0.391 0.242c-0.016 0.010-0.015 0.027 0 0.038l0.453 0.28zM15.434 21.618c0.010 0.005 0.020 0.008 0.031 0.008s0.021-0.003 0.031-0.008l0.391-0.241c0.016-0.010 0.015-0.028 0-0.039l-0.452-0.28c-0.010-0.005-0.020-0.008-0.031-0.008s-0.021 0.003-0.031 0.008l-0.39 0.241c-0.017 0.010-0.015 0.028 0 0.039l0.452 0.28zM14.292 22.325c0.010 0.005 0.020 0.008 0.031 0.008s0.022-0.003 0.031-0.008l0.391-0.241c0.016-0.010 0.015-0.028 0-0.039l-0.452-0.28c-0.010-0.005-0.020-0.008-0.031-0.008s-0.021 0.003-0.031 0.008l-0.39 0.241c-0.017 0.010-0.016 0.028 0 0.039l0.451 0.28zM14.424 25.85c-0.010-0.005-0.020-0.008-0.031-0.008s-0.021 0.003-0.031 0.008l-0.601 0.371c-0.016 0.010-0.015 0.028 0 0.039l0.452 0.28c0.010 0.005 0.020 0.008 0.031 0.008s0.022-0.003 0.031-0.008l0.601-0.372c0.017-0.010 0.015-0.028 0-0.039l-0.452-0.279zM13.472 22.834c0.010 0.005 0.020 0.008 0.031 0.008s0.021-0.003 0.031-0.008l0.391-0.242c0.016-0.010 0.015-0.028 0-0.038l-0.452-0.28c-0.010-0.005-0.020-0.008-0.031-0.008s-0.021 0.003-0.031 0.008l-0.39 0.242c-0.017 0.010-0.016 0.027 0 0.038l0.451 0.28zM12.902 23.181c0.010 0.005 0.020 0.008 0.031 0.008s0.022-0.003 0.031-0.008l0.391-0.242c0.016-0.010 0.015-0.028 0-0.038l-0.452-0.28c-0.010-0.005-0.020-0.008-0.031-0.008s-0.021 0.003-0.031 0.008l-0.39 0.242c-0.017 0.010-0.016 0.027 0 0.038l0.451 0.28zM25.003 19.3c-0.010-0.005-0.020-0.008-0.031-0.008s-0.021 0.003-0.031 0.008l-0.965 0.594c-0.016 0.010-0.015 0.028 0 0.039l0.452 0.28c0.010 0.005 0.020 0.008 0.031 0.008s0.021-0.003 0.031-0.008l0.967-0.591c0.017-0.010 0.016-0.028 0-0.039l-0.454-0.282zM23.74 20.081c-0.010-0.005-0.020-0.008-0.031-0.008s-0.021 0.003-0.031 0.008l-0.39 0.241c-0.017 0.010-0.016 0.028 0 0.039l0.452 0.28c0.010 0.005 0.020 0.008 0.031 0.008s0.021-0.003 0.031-0.008l0.391-0.241c0.016-0.010 0.015-0.028 0-0.039l-0.453-0.28zM16.006 24.67l0.39-0.242c0.017-0.010 0.015-0.028 0-0.038l-0.451-0.28c-0.010-0.005-0.020-0.008-0.031-0.008s-0.021 0.003-0.031 0.008l-0.391 0.241c-0.016 0.010-0.015 0.028 0 0.039l0.452 0.28c0.010 0.005 0.020 0.008 0.031 0.008s0.021-0.002 0.031-0.007zM22.599 20.788c-0.010-0.005-0.020-0.008-0.031-0.008s-0.021 0.003-0.031 0.008l-0.391 0.241c-0.016 0.010-0.015 0.028 0 0.039l0.452 0.28c0.010 0.005 0.020 0.008 0.031 0.008s0.021-0.003 0.031-0.008l0.39-0.241c0.017-0.010 0.016-0.028 0-0.039l-0.451-0.28zM25.574 18.946c-0.010-0.005-0.020-0.008-0.031-0.008s-0.021 0.003-0.031 0.008l-0.39 0.241c-0.017 0.010-0.016 0.028 0 0.038l0.452 0.28c0.010 0.005 0.020 0.008 0.031 0.008s0.021-0.003 0.031-0.008l0.391-0.241c0.016-0.010 0.015-0.028 0-0.039l-0.453-0.279zM26.596 18.873l-1.097-0.679c-0.010-0.005-0.020-0.008-0.031-0.008s-0.021 0.003-0.031 0.008l-0.39 0.242c-0.017 0.010-0.016 0.028 0 0.038l1.097 0.679c0.010 0.005 0.020 0.008 0.031 0.008s0.022-0.003 0.031-0.008l0.391-0.242c0.018-0.010 0.017-0.027-0.001-0.038zM20.465 22.11c-0.010-0.005-0.020-0.008-0.031-0.008s-0.022 0.003-0.031 0.008l-0.481 0.298c-0.016 0.010-0.015 0.028 0 0.038l0.452 0.28c0.010 0.005 0.020 0.008 0.031 0.008s0.022-0.003 0.031-0.008l0.481-0.298c0.016-0.010 0.015-0.028 0-0.038l-0.452-0.28zM21.907 21.216c-0.010-0.005-0.020-0.008-0.031-0.008s-0.021 0.003-0.031 0.008l-0.601 0.372c-0.016 0.010-0.015 0.028 0 0.038l0.452 0.28c0.010 0.005 0.020 0.008 0.031 0.008s0.021-0.003 0.031-0.008l0.601-0.372c0.016-0.010 0.015-0.028 0-0.039l-0.452-0.28zM19.142 22.928c-0.010-0.005-0.020-0.008-0.031-0.008s-0.021 0.003-0.031 0.008l-3.216 1.99c-0.016 0.010-0.015 0.028 0 0.039l0.452 0.28c0.010 0.005 0.020 0.008 0.031 0.008s0.021-0.003 0.031-0.008l3.216-1.991c0.016-0.010 0.015-0.028 0-0.039l-0.452-0.279zM15.746 25.031c-0.010-0.005-0.020-0.008-0.031-0.008s-0.021 0.003-0.031 0.008l-0.48 0.298c-0.017 0.010-0.016 0.028 0 0.038l0.452 0.28c0.010 0.005 0.020 0.008 0.031 0.008s0.022-0.003 0.031-0.008l0.483-0.294c0.016-0.010 0.015-0.028 0-0.038l-0.455-0.283zM19.803 22.519c-0.010-0.005-0.020-0.008-0.031-0.008s-0.021 0.003-0.031 0.008l-0.48 0.298c-0.017 0.010-0.016 0.028 0 0.039l0.452 0.28c0.010 0.005 0.020 0.008 0.031 0.008s0.021-0.003 0.031-0.008l0.481-0.298c0.017-0.010 0.015-0.027 0-0.038l-0.453-0.28zM15.085 25.439c-0.010-0.005-0.020-0.008-0.031-0.008s-0.021 0.003-0.031 0.008l-0.481 0.298c-0.016 0.010-0.015 0.028 0 0.039l0.452 0.28c0.010 0.005 0.020 0.008 0.031 0.008s0.021-0.003 0.031-0.008l0.48-0.297c0.017-0.010 0.016-0.028 0-0.039l-0.451-0.28zM21.126 21.699c-0.010-0.005-0.020-0.008-0.031-0.008s-0.021 0.003-0.031 0.008l-0.48 0.297c-0.017 0.010-0.016 0.028 0 0.039l0.452 0.28c0.010 0.005 0.020 0.008 0.031 0.008s0.021-0.003 0.031-0.008l0.481-0.298c0.017-0.010 0.015-0.028 0-0.039l-0.453-0.279zM23.169 20.434c-0.010-0.005-0.020-0.008-0.031-0.008s-0.021 0.003-0.031 0.008l-0.39 0.241c-0.017 0.010-0.016 0.028 0 0.039l0.452 0.28c0.010 0.005 0.020 0.008 0.031 0.008s0.021-0.003 0.031-0.008l0.391-0.241c0.016-0.010 0.015-0.028 0-0.039l-0.453-0.28zM24.421 19.46l0.39-0.241c0.017-0.010 0.016-0.028 0-0.039l-0.452-0.28c-0.010-0.005-0.020-0.008-0.031-0.008s-0.021 0.003-0.031 0.008l-0.391 0.242c-0.016 0.010-0.015 0.028 0 0.038l0.452 0.28c0.010 0.005 0.021 0.008 0.032 0.008s0.022-0.003 0.032-0.008v-0.001zM21.87 19.447l0.391-0.242c0.016-0.010 0.015-0.028 0-0.038l-0.452-0.28c-0.010-0.005-0.020-0.008-0.031-0.008s-0.021 0.003-0.031 0.008l-0.39 0.242c-0.017 0.010-0.015 0.027 0 0.038l0.451 0.28c0.010 0.005 0.020 0.008 0.031 0.008s0.022-0.003 0.031-0.008zM20.574 21.847l1.142-0.707c0.016-0.010 0.015-0.028 0-0.039l-0.452-0.28c-0.010-0.005-0.020-0.008-0.031-0.008s-0.021 0.003-0.031 0.008l-1.142 0.708c-0.016 0.010-0.015 0.027 0 0.038l0.452 0.28c0.010 0.005 0.021 0.007 0.032 0.006s0.021-0.004 0.031-0.010v0.004zM23.787 19.817c0.010 0.005 0.020 0.008 0.031 0.008s0.021-0.003 0.031-0.008l0.39-0.241c0.017-0.010 0.016-0.028 0-0.039l-0.452-0.28c-0.010-0.005-0.020-0.008-0.031-0.008s-0.022 0.003-0.031 0.008l-0.391 0.241c-0.016 0.010-0.015 0.028 0 0.039l0.453 0.28zM23.204 19.419l0.39-0.241c0.017-0.010 0.016-0.028 0-0.039l-0.452-0.28c-0.010-0.005-0.020-0.008-0.031-0.008s-0.021 0.003-0.031 0.008l-0.391 0.242c-0.016 0.010-0.015 0.028 0 0.038l0.452 0.28c0.010 0.004 0.021 0.006 0.032 0.005s0.022-0.005 0.031-0.011v0.004zM20.003 22.197l0.39-0.242c0.017-0.010 0.015-0.027 0-0.038l-0.452-0.28c-0.010-0.005-0.020-0.008-0.031-0.008s-0.021 0.003-0.031 0.008l-0.393 0.241c-0.017 0.010-0.015 0.027 0 0.038l0.452 0.28c0.011 0.006 0.022 0.010 0.035 0.010s0.024-0.004 0.034-0.011l-0.004 0.002zM22.525 20.596c0.010 0.005 0.020 0.008 0.031 0.008s0.021-0.003 0.031-0.008l0.391-0.241c0.016-0.010 0.015-0.028 0-0.039l-0.452-0.28c-0.010-0.005-0.020-0.008-0.031-0.008s-0.021 0.003-0.031 0.008l-0.39 0.242c-0.017 0.010-0.016 0.028 0 0.038l0.451 0.28zM17.148 23.963l0.39-0.241c0.017-0.010 0.016-0.028 0-0.039l-0.452-0.28c-0.010-0.005-0.020-0.008-0.031-0.008s-0.021 0.003-0.031 0.008l-0.391 0.241c-0.016 0.010-0.015 0.028 0 0.039l0.452 0.28c0.010 0.005 0.021 0.008 0.032 0.008s0.022-0.003 0.032-0.008zM17.719 23.609l0.391-0.241c0.016-0.010 0.015-0.028 0-0.039l-0.451-0.28c-0.010-0.005-0.020-0.008-0.031-0.008s-0.022 0.003-0.031 0.008l-0.391 0.241c-0.016 0.010-0.015 0.028 0 0.039l0.452 0.28c0.010 0.005 0.020 0.008 0.031 0.008s0.021-0.003 0.031-0.008zM16.577 24.316l0.39-0.241c0.017-0.010 0.016-0.028 0-0.039l-0.451-0.28c-0.010-0.005-0.020-0.008-0.031-0.008s-0.021 0.003-0.031 0.008l-0.391 0.241c-0.016 0.010-0.015 0.028 0 0.039l0.452 0.28c0.010 0.005 0.020 0.008 0.031 0.008s0.021-0.003 0.031-0.008zM18.861 22.902l0.391-0.241c0.016-0.010 0.015-0.028 0-0.039l-0.452-0.28c-0.010-0.005-0.020-0.008-0.031-0.008s-0.021 0.003-0.031 0.008l-0.39 0.242c-0.017 0.010-0.016 0.028 0 0.038l0.452 0.28c0.010 0.005 0.020 0.008 0.031 0.008s0.021-0.003 0.031-0.008zM18.294 23.256l0.391-0.241c0.016-0.010 0.015-0.028 0-0.039l-0.459-0.28c-0.010-0.005-0.020-0.008-0.031-0.008s-0.022 0.003-0.031 0.008l-0.39 0.241c-0.017 0.010-0.016 0.028 0 0.038l0.452 0.28c0.010 0.006 0.021 0.009 0.032 0.009s0.022-0.003 0.032-0.009h0.004zM19.436 22.549l0.391-0.242c0.016-0.010 0.015-0.027 0-0.038l-0.452-0.28c-0.010-0.005-0.020-0.008-0.031-0.008s-0.021 0.003-0.031 0.008l-0.397 0.237c-0.017 0.010-0.015 0.028 0 0.038l0.451 0.28c0.010 0.007 0.020 0.011 0.032 0.011s0.023-0.001 0.033-0.006h0.004zM22.048 17.319c0.010 0.005 0.020 0.008 0.031 0.008s0.022-0.003 0.031-0.008l0.391-0.242c0.016-0.010 0.015-0.027 0-0.038l-0.12-0.075c-0.010-0.005-0.020-0.008-0.031-0.008s-0.021 0.003-0.031 0.008l-0.391 0.241c-0.016 0.010-0.015 0.028 0 0.039l0.12 0.075zM19.239 19.264c0.010 0.005 0.020 0.008 0.031 0.008s0.021-0.003 0.031-0.008l0.39-0.241c0.017-0.010 0.016-0.028 0-0.039l-0.452-0.28c-0.010-0.005-0.020-0.008-0.031-0.008s-0.021 0.003-0.031 0.008l-0.391 0.241c-0.016 0.010-0.015 0.028 0 0.039l0.453 0.28zM20.381 18.557c0.010 0.005 0.020 0.008 0.031 0.008s0.021-0.003 0.031-0.008l0.391-0.241c0.016-0.010 0.015-0.028 0-0.039l-0.452-0.28c-0.010-0.005-0.020-0.008-0.031-0.008s-0.021 0.003-0.031 0.008l-0.394 0.241c-0.017 0.010-0.016 0.028 0 0.039l0.454 0.28zM18.542 19.696c0.010 0.005 0.020 0.008 0.031 0.008s0.021-0.003 0.031-0.008l0.39-0.242c0.017-0.010 0.016-0.028 0-0.038l-0.452-0.28c-0.010-0.005-0.020-0.008-0.031-0.008s-0.021 0.003-0.031 0.008l-0.391 0.241c-0.016 0.010-0.015 0.028 0 0.039l0.453 0.28zM19.81 18.914c0.010 0.005 0.020 0.008 0.031 0.008s0.021-0.003 0.031-0.008l0.391-0.241c0.016-0.010 0.015-0.028 0-0.039l-0.452-0.28c-0.010-0.005-0.020-0.008-0.031-0.008s-0.021 0.003-0.031 0.008l-0.39 0.241c-0.017 0.010-0.016 0.028 0 0.039l0.451 0.28zM17.396 20.403c0.010 0.005 0.020 0.008 0.031 0.008s0.022-0.003 0.031-0.008l0.39-0.242c0.017-0.010 0.015-0.028 0-0.038l-0.451-0.28c-0.010-0.005-0.020-0.008-0.031-0.008s-0.021 0.003-0.031 0.008l-0.391 0.242c-0.016 0.010-0.015 0.027 0 0.038l0.452 0.28zM17.967 20.049c0.010 0.005 0.020 0.008 0.031 0.008s0.021-0.003 0.031-0.008l0.39-0.242c0.017-0.010 0.016-0.028 0-0.038l-0.451-0.28c-0.010-0.005-0.020-0.008-0.031-0.008s-0.021 0.003-0.031 0.008l-0.391 0.242c-0.016 0.010-0.015 0.027 0 0.038l0.452 0.28zM20.902 18.027c0.010 0.005 0.020 0.008 0.031 0.008s0.021-0.003 0.031-0.008l0.391-0.241c0.016-0.010 0.015-0.028 0-0.039l-0.121-0.075c-0.010-0.005-0.020-0.008-0.031-0.008s-0.021 0.003-0.031 0.008l-0.39 0.241c-0.017 0.010-0.015 0.028 0 0.039l0.12 0.075zM22.616 16.966c0.009 0.005 0.020 0.008 0.031 0.008s0.021-0.003 0.031-0.008l0.391-0.242c0.016-0.010 0.015-0.027 0-0.038l-0.12-0.075c-0.010-0.005-0.020-0.008-0.031-0.008s-0.022 0.003-0.031 0.008l-0.391 0.241c-0.016 0.010-0.015 0.028 0 0.039l0.121 0.075zM23.564 17.554c0.010 0.005 0.020 0.008 0.031 0.008s0.021-0.003 0.031-0.008l0.391-0.242c0.016-0.010 0.015-0.028 0-0.038l-0.452-0.28c-0.010-0.005-0.020-0.008-0.031-0.008s-0.021 0.003-0.031 0.008l-0.39 0.241c-0.017 0.010-0.015 0.028 0 0.039l0.451 0.28zM24.991 19.107l0.391-0.242c0.016-0.010 0.015-0.027 0-0.038l-0.452-0.28c-0.010-0.005-0.020-0.008-0.031-0.008s-0.021 0.003-0.031 0.008l-0.39 0.242c-0.017 0.010-0.016 0.028 0 0.038l0.452 0.28c0.010 0.005 0.020 0.008 0.031 0.008s0.021-0.003 0.031-0.008zM21.473 17.673c0.010 0.005 0.020 0.008 0.031 0.008s0.021-0.003 0.031-0.008l0.391-0.241c0.016-0.010 0.015-0.028 0-0.039l-0.121-0.075c-0.010-0.005-0.020-0.008-0.031-0.008s-0.021 0.003-0.031 0.008l-0.39 0.241c-0.016 0.010-0.015 0.028 0 0.039l0.12 0.075zM16.825 20.756c0.010 0.005 0.020 0.008 0.031 0.008s0.021-0.003 0.031-0.008l0.39-0.242c0.016-0.010 0.015-0.027 0-0.038l-0.452-0.28c-0.010-0.005-0.020-0.008-0.031-0.008s-0.021 0.003-0.031 0.008l-0.39 0.242c-0.016 0.010-0.015 0.027 0 0.038l0.452 0.28z"></path>
<path fill="#263238" style="fill: var(--color12, #263238)" d="M19.146 24.562l4.276-2.648 2.632 1.629-4.276 2.648-2.631-1.629z"></path>
<path fill="#f5f5f5" style="fill: var(--color1, #f5f5f5)" d="M9.642 11.221l12.743-7.889c0.249-0.155 0.453-0.028 0.453 0.28v10.582c-0.004 0.078-0.025 0.154-0.062 0.222s-0.087 0.126-0.149 0.168l-13.066 8.089c-0.116 0.071-0.21 0.013-0.21-0.13v-10.783c0.006-0.108 0.035-0.214 0.086-0.308s0.121-0.174 0.206-0.233z"></path>
<path fill="#f03e3d" style="fill: var(--color8, #f03e3d)" d="M22.842 3.866v-0.254c0-0.308-0.204-0.434-0.453-0.28l-12.747 7.889c-0.085 0.060-0.155 0.139-0.206 0.233s-0.080 0.199-0.086 0.308v0.454l13.491-8.35z"></path>
<path fill="#fff" style="fill: var(--color6, #fff)" d="M20.94 4.444c-0.046 0.032-0.083 0.075-0.111 0.125s-0.043 0.107-0.046 0.165c0 0.107 0.070 0.15 0.156 0.096 0.045-0.032 0.083-0.074 0.11-0.125s0.043-0.107 0.045-0.165c0-0.107-0.070-0.15-0.155-0.097z"></path>
<path fill="#fff" style="fill: var(--color6, #fff)" d="M21.559 4.061c-0.045 0.032-0.083 0.075-0.11 0.125s-0.043 0.107-0.045 0.165c0 0.107 0.070 0.149 0.156 0.096 0.046-0.032 0.083-0.075 0.111-0.125s0.043-0.107 0.046-0.165c0-0.107-0.070-0.15-0.156-0.096z"></path>
<path fill="#fff" style="fill: var(--color6, #fff)" d="M22.178 3.677c-0.045 0.032-0.083 0.075-0.11 0.125s-0.043 0.107-0.046 0.165c0 0.107 0.070 0.15 0.156 0.096 0.045-0.032 0.083-0.074 0.11-0.125s0.043-0.107 0.046-0.165c0-0.107-0.070-0.15-0.156-0.097z"></path>
<path fill="#37474f" style="fill: var(--color11, #37474f)" d="M12.497 17.397l-0.496-0.307-1.214 2.255 0.496 0.307 1.214-2.255z"></path>
<path fill="#263238" style="fill: var(--color12, #263238)" d="M12.498 17.396l-0.248-0.153-1.214 2.255 0.248 0.153 1.214-2.255z"></path>
<path fill="#11b5e4" style="fill: var(--color9, #11b5e4)" d="M9.456 23.749c-0.226 0.421-1.296-0.247-1.071-0.663l2.79-4.666c0.008-0.013 0.019-0.022 0.033-0.025s0.028-0.001 0.040 0.006l0.56 0.347c0.012 0.007 0.021 0.019 0.025 0.034s0.002 0.030-0.004 0.043l-2.373 4.923z"></path>
<path fill="#000" style="fill: var(--color5, #000)" opacity="0.1" d="M9.456 23.749l2.373-4.923c0.006-0.013 0.008-0.029 0.004-0.043s-0.013-0.026-0.025-0.034l-0.255-0.158-2.72 5.185c0.248 0.131 0.521 0.163 0.623-0.027z"></path>
<path fill="#11b5e4" style="fill: var(--color9, #11b5e4)" d="M17.659 12.766c0-0.036 0-0.070-0.005-0.105s0-0.069-0.007-0.102c-0.007-0.034 0-0.045-0.006-0.068-0.006-0.059-0.014-0.117-0.023-0.174-0.004-0.025-0.008-0.051-0.013-0.076s-0.009-0.048-0.014-0.071c-0.014-0.064-0.028-0.127-0.045-0.187-0.009-0.029-0.017-0.057-0.026-0.087-0.002-0.004-0.003-0.009-0.004-0.013-0.010-0.028-0.019-0.055-0.028-0.081s-0.023-0.061-0.036-0.087c-0.013-0.026-0.018-0.043-0.028-0.063-0.006-0.016-0.013-0.031-0.021-0.045-0.008-0.018-0.017-0.036-0.027-0.054s-0.004-0.009-0.007-0.012c-0.002-0.004-0.017-0.031-0.026-0.047s-0.012-0.020-0.018-0.030c-0.041-0.070-0.088-0.137-0.139-0.199l-0.026-0.031-0.022-0.024c-0.009-0.010-0.019-0.020-0.028-0.030-0.025-0.029-0.052-0.056-0.081-0.081-0.014-0.013-0.028-0.025-0.043-0.036l-0.045-0.035c-0.023-0.018-0.047-0.035-0.072-0.050l-0.019-0.013h-0.004l-1.154-0.715c-0.22-0.132-0.469-0.199-0.721-0.195-0.376 0-0.8 0.132-1.249 0.41-1.543 0.955-2.795 3.28-2.795 5.193 0 0.955 0.311 1.624 0.814 1.938h0.005l1.148 0.709h0.005l0.014 0.008c0.022 0.014 0.044 0.026 0.066 0.037 0.028 0.015 0.056 0.028 0.081 0.040s0.051 0.022 0.077 0.030l0.041 0.013c0.014 0.006 0.029 0.011 0.044 0.014 0.015 0.005 0.030 0.009 0.045 0.012 0.011 0.003 0.022 0.006 0.033 0.008 0.019 0.004 0.040 0.009 0.061 0.011 0.005 0.001 0.009 0.001 0.014 0 0.024 0.005 0.049 0.008 0.073 0.010 0.416 0.047 0.9-0.079 1.419-0.399 1.544-0.955 2.796-3.281 2.796-5.193-0.004-0.040-0.004-0.085-0.004-0.13zM15.786 11.414c0.061 0.238 0.090 0.483 0.088 0.729 0 1.686-1.151 3.821-2.51 4.666-0.199 0.127-0.413 0.222-0.637 0.284-0.060-0.238-0.090-0.484-0.088-0.73 0-1.686 1.151-3.821 2.51-4.666 0.198-0.126 0.412-0.222 0.635-0.283h0.002z"></path>
<path fill="#000" style="fill: var(--color5, #000)" opacity="0.1" d="M12.846 18.28l-1.115-0.689c-0.503-0.315-0.814-0.986-0.814-1.937 0-0.853 0.249-1.787 0.662-2.645l1.148 0.709c-0.413 0.858-0.662 1.792-0.662 2.645 0 0.934 0.296 1.595 0.781 1.918z"></path>
<path fill="#fff" style="fill: var(--color6, #fff)" opacity="0.4" d="M17.659 12.766c0-0.036 0-0.070-0.005-0.105s0-0.069-0.007-0.102 0-0.045-0.006-0.068c-0.006-0.059-0.014-0.117-0.023-0.174-0.004-0.025-0.008-0.051-0.013-0.076s-0.009-0.048-0.014-0.071c-0.014-0.064-0.028-0.127-0.045-0.187-0.009-0.029-0.017-0.057-0.026-0.087-0.002-0.004-0.003-0.009-0.004-0.013-0.010-0.028-0.019-0.055-0.028-0.081s-0.023-0.061-0.036-0.087c-0.013-0.026-0.018-0.043-0.028-0.063-0.006-0.016-0.013-0.031-0.021-0.045-0.008-0.018-0.017-0.036-0.027-0.054s-0.004-0.009-0.007-0.012c-0.002-0.003-0.017-0.031-0.026-0.047s-0.012-0.020-0.018-0.030c-0.041-0.070-0.088-0.137-0.139-0.199l-0.026-0.031-0.022-0.024c-0.009-0.010-0.019-0.020-0.028-0.030-0.025-0.029-0.052-0.056-0.081-0.081-0.014-0.013-0.028-0.025-0.043-0.036l-0.045-0.035c-0.023-0.018-0.047-0.035-0.072-0.050-0.508-0.331-1.215-0.292-2.001 0.194-1.544 0.955-2.796 3.281-2.796 5.193 0 0.968 0.324 1.645 0.838 1.952 0.022 0.014 0.044 0.026 0.066 0.037 0.028 0.015 0.056 0.028 0.081 0.040s0.051 0.022 0.077 0.030l0.041 0.013c0.014 0.006 0.029 0.011 0.045 0.014 0.015 0.005 0.030 0.009 0.045 0.012 0.011 0.003 0.022 0.006 0.033 0.008 0.019 0.004 0.040 0.009 0.061 0.011 0.005 0.001 0.009 0.001 0.014 0 0.024 0.005 0.049 0.008 0.073 0.010 0.416 0.047 0.9-0.079 1.419-0.399 1.544-0.955 2.796-3.281 2.796-5.193-0.002-0.043-0.002-0.089-0.002-0.134zM14.582 17.568c-0.347 0.214-0.68 0.327-0.965 0.327-0.535 0-0.781-0.392-0.891-0.802-0.060-0.238-0.090-0.484-0.088-0.73 0-1.686 1.151-3.821 2.51-4.666 0.199-0.126 0.413-0.222 0.637-0.283 0.106-0.028 0.215-0.043 0.324-0.044 0.885 0 0.98 1.072 0.98 1.533 0.003 1.683-1.147 3.823-2.507 4.666z"></path>
<path fill="#000" style="fill: var(--color5, #000)" opacity="0.1" d="M17.092 12.902c0 1.686-1.15 3.821-2.51 4.666-0.347 0.214-0.68 0.327-0.965 0.327-0.535 0-0.781-0.392-0.891-0.802 0.224-0.062 0.439-0.157 0.637-0.284 1.362-0.843 2.51-2.98 2.51-4.666 0.002-0.246-0.028-0.492-0.088-0.729 0.106-0.028 0.215-0.043 0.324-0.044 0.887 0.003 0.983 1.072 0.983 1.533z"></path>
<path fill="#fff" style="fill: var(--color6, #fff)" opacity="0.7" d="M16.606 12.608c0 1.686-1.15 3.821-2.51 4.666-0.347 0.215-0.68 0.327-0.965 0.327-0.057 0-0.113-0.005-0.169-0.015-0.109-0.145-0.189-0.313-0.234-0.493-0.060-0.238-0.090-0.484-0.088-0.73 0-1.686 1.151-3.821 2.51-4.666 0.199-0.126 0.413-0.222 0.637-0.283 0.106-0.028 0.215-0.043 0.324-0.044 0.057-0 0.114 0.005 0.17 0.015 0.28 0.353 0.326 0.92 0.326 1.223z"></path>
<path fill="#e6e6e6" style="fill: var(--color13, #e6e6e6)" d="M18.563 10.851v1.922c0 0.144 0.095 0.202 0.211 0.13l11.75-7.274c0.061-0.043 0.112-0.101 0.149-0.168s0.058-0.144 0.062-0.222v-1.925c0-0.144-0.095-0.202-0.21-0.13l-11.75 7.274c-0.061 0.043-0.113 0.101-0.149 0.17s-0.058 0.145-0.061 0.224z"></path>
<path fill="#ba68c8" style="fill: var(--color14, #ba68c8)" d="M18.774 10.458l2.092-1.295v2.443l-2.092 1.295c-0.116 0.072-0.211 0.014-0.211-0.13v-1.92c0.004-0.079 0.025-0.155 0.061-0.224s0.088-0.126 0.149-0.17z"></path>
<path fill="#fff" style="fill: var(--color6, #fff)" d="M20.174 10.229c-0.132-0.082-0.299-0.069-0.47 0.037-0.162 0.112-0.297 0.263-0.394 0.442s-0.152 0.38-0.161 0.587c-0.006 0.134 0.034 0.265 0.111 0.371l-0.225 0.413c-0.015 0.030-0.018 0.064-0.010 0.096s0.028 0.060 0.054 0.077c0.019 0.011 0.039 0.017 0.061 0.017s0.042-0.006 0.061-0.017c0.018-0.011 0.034-0.028 0.045-0.048l0.223-0.413c0.024 0.005 0.048 0.007 0.073 0.008 0.099-0.002 0.197-0.032 0.282-0.087 0.162-0.112 0.297-0.264 0.393-0.443s0.151-0.38 0.161-0.586c0.002-0.211-0.070-0.373-0.203-0.455zM19.704 11.488c-0.028 0.033-0.066 0.054-0.108 0.061s-0.084-0.002-0.12-0.024-0.064-0.057-0.080-0.099c-0.015-0.042-0.017-0.088-0.005-0.131 0.009-0.161 0.053-0.317 0.129-0.456s0.179-0.258 0.305-0.347c0.049-0.033 0.104-0.052 0.162-0.055 0.024-0.001 0.047 0.005 0.068 0.017 0.031 0.028 0.054 0.064 0.068 0.104s0.019 0.084 0.013 0.126c-0.009 0.161-0.053 0.317-0.128 0.456s-0.179 0.258-0.304 0.347z"></path>
</symbol>
<symbol id="icon-amico_3" viewBox="0 0 38 32">
<path fill="#fafafa" style="fill: var(--color15, #fafafa)" d="M7.139 28.422c7.11 4.632 18.642 4.632 25.751 0s7.11-12.142 0-16.773c-7.11-4.631-18.642-4.632-25.752 0s-7.112 12.142 0 16.773z"></path>
<path fill="#02897a" style="fill: var(--color4, #02897a)" d="M34.942 11.309c0.039-0.538 0.414-1.454 0.97-2.104s1.445-0.968 1.994-0.705c0.512 0.246 0.399 1.001-0.276 1.448s-1.679 0.996-2.023 1.842l-0.666 1.016v-1.497z"></path>
<path fill="#000" style="fill: var(--color5, #000)" opacity="0.2" d="M34.942 11.309c0.039-0.538 0.414-1.454 0.97-2.104s1.445-0.968 1.994-0.705c0.512 0.246 0.399 1.001-0.276 1.448s-1.679 0.996-2.023 1.842l-0.666 1.016v-1.497z"></path>
<path fill="#02897a" style="fill: var(--color4, #02897a)" d="M35.017 13.723c0.098-0.287 0.525-0.82 1.138-1.081s1.077-0.495 1.301-0.915c0.224-0.421-0.166-0.834-0.786-0.804s-1.653 0.746-1.725 1.884l0.072 0.916z"></path>
<path fill="#02897a" style="fill: var(--color4, #02897a)" d="M2.991 16.454c-0.026-0.76-0.18-1.508-0.452-2.207-0.457-1.195-1.381-1.827-1.874-1.913s-1.001 0.574-0.375 1.358c0.627 0.784 1.829 1.835 2.174 3.423l0.564 1.085-0.038-1.747z"></path>
<path fill="#000" style="fill: var(--color5, #000)" opacity="0.2" d="M2.991 16.454c-0.026-0.76-0.18-1.508-0.452-2.207-0.457-1.195-1.381-1.827-1.874-1.913s-1.001 0.574-0.375 1.358c0.627 0.784 1.829 1.835 2.174 3.423l0.564 1.085-0.038-1.747z"></path>
<path fill="#02897a" style="fill: var(--color4, #02897a)" d="M2.914 19.313c-0.14-0.617-0.505-1.218-1.234-1.823s-1.704-1.124-1.624-1.741c0.080-0.617 0.819-0.574 1.36-0.301s1.479 1.395 1.614 2.751l-0.115 1.114z"></path>
<path fill="#263238" style="fill: var(--color12, #263238)" d="M3.113 19.694c-0.058-0.042-0.107-0.098-0.141-0.165s-0.055-0.141-0.058-0.218v-13.807c0.004-0.077 0.024-0.151 0.058-0.218s0.083-0.123 0.141-0.165l4.471-2.847c0.058-0.040 0.124-0.062 0.192-0.063s0.135 0.018 0.194 0.056c0.059 0.038 0.108 0.092 0.141 0.158s0.049 0.14 0.047 0.215v0.922c0 0.141 0.087 0.198 0.2 0.127l5.595-3.563c0.058-0.040 0.124-0.061 0.192-0.063s0.135 0.018 0.194 0.055c0.059 0.038 0.108 0.092 0.141 0.158s0.049 0.14 0.047 0.215v21.222l-4.124 2.625-7.291-4.646z"></path>
<path fill="#455a64" style="fill: var(--color10, #455a64)" d="M14.341 0.12c-0.060-0.033-0.127-0.049-0.194-0.047s-0.133 0.020-0.192 0.055l-5.595 3.563c-0.111 0.071-0.2 0.013-0.2-0.127v-0.922c0.002-0.075-0.014-0.15-0.047-0.215s-0.082-0.12-0.141-0.158c-0.059-0.038-0.126-0.057-0.194-0.056s-0.135 0.023-0.192 0.063l-4.471 2.847c-0.059 0.041-0.107 0.098-0.141 0.165l2.565 1.634 8.991-5.728v-0.699c-0.002-0.074-0.021-0.146-0.053-0.211s-0.079-0.12-0.134-0.162z"></path>
<path fill="#37474f" style="fill: var(--color11, #37474f)" d="M14.329 0.366l-5.97 3.802c-0.111 0.071-0.2 0.013-0.2-0.127v-1.399c0-0.141-0.087-0.198-0.199-0.127l-4.471 2.847c-0.058 0.042-0.107 0.098-0.141 0.165s-0.055 0.141-0.058 0.218v13.334c0.004 0.077 0.024 0.151 0.058 0.218s0.083 0.123 0.142 0.165l7.293 4.645 3.746-2.385v-21.227c0-0.141-0.089-0.197-0.199-0.127z"></path>
<path fill="#263238" style="fill: var(--color12, #263238)" d="M3.347 19.291c0.033 0.067 0.082 0.124 0.141 0.164l7.293 4.645 3.747-2.385v-9.545l-11.181 7.121z"></path>
<path fill="#f5f5f5" style="fill: var(--color1, #f5f5f5)" d="M4.253 22.331l-0.055-0.035c-0.047-0.033-0.085-0.078-0.113-0.131s-0.044-0.113-0.047-0.174v-12.956c0.003-0.061 0.019-0.121 0.047-0.174s0.067-0.098 0.114-0.131l12.043-7.671c0.050-0.028 0.104-0.042 0.16-0.042s0.11 0.014 0.16 0.042l0.055 0.035c0.047 0.033 0.085 0.078 0.113 0.131s0.044 0.113 0.047 0.174v12.953c-0.003 0.061-0.019 0.121-0.047 0.174s-0.067 0.098-0.113 0.132l-12.043 7.673c-0.050 0.028-0.104 0.042-0.16 0.042s-0.11-0.015-0.16-0.042z"></path>
<path fill="#e0e0e0" style="fill: var(--color2, #e0e0e0)" d="M4.787 9.307l-0.702-0.448c-0.029 0.053-0.045 0.113-0.047 0.174v12.956c0.003 0.061 0.019 0.121 0.047 0.174s0.067 0.098 0.113 0.131l0.055 0.035c0.050 0.028 0.104 0.042 0.16 0.042s0.11-0.015 0.16-0.042l0.214-0.137v-12.885z"></path>
<path fill="#ebebeb" style="fill: var(--color3, #ebebeb)" d="M4.413 22.227v-12.956c0.003-0.061 0.019-0.121 0.047-0.174s0.066-0.098 0.113-0.132l12.043-7.671c0.087-0.055 0.16-0.011 0.16 0.102v12.956c-0.003 0.061-0.019 0.121-0.047 0.174s-0.067 0.098-0.113 0.132l-12.043 7.673c-0.088 0.053-0.16 0.009-0.16-0.104z"></path>
<path fill="#fff" style="fill: var(--color6, #fff)" d="M5.362 9.418l10.465-6.665c0.11-0.071 0.199-0.013 0.199 0.127v9.989c-0.003 0.077-0.023 0.151-0.058 0.218s-0.083 0.123-0.141 0.165l-10.465 6.664c-0.11 0.071-0.199 0.013-0.199-0.127v-9.989c0.004-0.077 0.024-0.151 0.058-0.218s0.083-0.123 0.141-0.165z"></path>
<path fill="#ffb900" style="fill: var(--color16, #ffb900)" d="M7.091 8.92c0.652-0.415 1.18-0.078 1.18 0.752s-0.528 1.839-1.18 2.254c-0.652 0.415-1.18 0.079-1.18-0.751s0.528-1.84 1.18-2.255z"></path>
<path fill="#ffb900" style="fill: var(--color16, #ffb900)" d="M8.185 11.931c0.040-0.082 0.097-0.153 0.167-0.206s0.149-0.088 0.233-0.1c0.084-0.013 0.169-0.003 0.249 0.027s0.152 0.082 0.211 0.149l1.36 1.562 2.584-6.993c0.038-0.103 0.101-0.191 0.182-0.256s0.178-0.103 0.278-0.111c0.1-0.008 0.2 0.016 0.289 0.068s0.162 0.13 0.212 0.226l2.075 3.964v2.609c-0.003 0.077-0.023 0.151-0.058 0.218s-0.083 0.123-0.141 0.165l-10.464 6.664c-0.11 0.071-0.199 0.013-0.199-0.127v-1.655l3.023-6.204z"></path>
<path fill="#f5f5f5" style="fill: var(--color1, #f5f5f5)" d="M6.503 23.766l-0.056-0.035c-0.046-0.033-0.085-0.079-0.113-0.131s-0.044-0.113-0.047-0.174v-12.96c0.003-0.061 0.019-0.121 0.047-0.174s0.066-0.098 0.113-0.132l12.044-7.67c0.049-0.028 0.104-0.043 0.16-0.043s0.11 0.015 0.16 0.043l0.055 0.034c0.046 0.033 0.085 0.079 0.113 0.132s0.044 0.112 0.047 0.174v12.956c-0.003 0.061-0.018 0.121-0.046 0.174s-0.067 0.098-0.113 0.131l-12.046 7.676c-0.049 0.028-0.103 0.042-0.159 0.042s-0.11-0.015-0.159-0.042z"></path>
<path fill="#e0e0e0" style="fill: var(--color2, #e0e0e0)" d="M7.035 10.739l-0.702-0.448c-0.029 0.052-0.045 0.112-0.047 0.173v12.956c0.003 0.061 0.019 0.121 0.047 0.174s0.066 0.098 0.113 0.131l0.056 0.035c0.049 0.028 0.104 0.043 0.16 0.043s0.11-0.015 0.16-0.043l0.215-0.137v-12.885z"></path>
<path fill="#ebebeb" style="fill: var(--color3, #ebebeb)" d="M6.66 23.66v-12.956c0.003-0.061 0.019-0.121 0.047-0.174s0.066-0.098 0.113-0.132l12.044-7.671c0.087-0.056 0.16-0.011 0.16 0.101v12.956c-0.003 0.061-0.018 0.121-0.046 0.174s-0.067 0.098-0.113 0.131l-12.044 7.676c-0.088 0.052-0.16 0.006-0.16-0.106z"></path>
<path fill="#fff" style="fill: var(--color6, #fff)" d="M7.61 10.853l10.465-6.666c0.11-0.070 0.199-0.012 0.199 0.127v9.988c-0.004 0.077-0.024 0.151-0.058 0.218s-0.083 0.123-0.141 0.165l-10.465 6.666c-0.111 0.070-0.2 0.013-0.2-0.127v-9.988c0.004-0.077 0.024-0.151 0.058-0.218s0.083-0.123 0.142-0.165z"></path>
<path fill="#11b5e4" style="fill: var(--color9, #11b5e4)" d="M9.34 10.353c0.651-0.415 1.18-0.078 1.18 0.752s-0.529 1.839-1.18 2.254c-0.651 0.415-1.18 0.079-1.18-0.752s0.528-1.839 1.18-2.254z"></path>
<path fill="#11b5e4" style="fill: var(--color9, #11b5e4)" d="M10.433 13.364c0.040-0.082 0.097-0.153 0.166-0.206s0.149-0.088 0.233-0.1c0.084-0.013 0.169-0.003 0.249 0.027s0.152 0.082 0.211 0.149l1.367 1.562 2.583-6.993c0.038-0.103 0.101-0.192 0.182-0.257s0.178-0.104 0.278-0.111c0.1-0.008 0.201 0.016 0.289 0.068s0.162 0.131 0.213 0.227l2.074 3.964v2.608c-0.003 0.077-0.023 0.151-0.058 0.218s-0.083 0.123-0.141 0.165l-10.465 6.666c-0.111 0.070-0.2 0.013-0.2-0.127v-1.655l3.020-6.205z"></path>
<path fill="#f5f5f5" style="fill: var(--color1, #f5f5f5)" d="M8.748 25.192l-0.055-0.034c-0.046-0.033-0.085-0.079-0.113-0.131s-0.044-0.113-0.047-0.174v-12.956c0.003-0.061 0.019-0.121 0.047-0.174s0.067-0.098 0.114-0.131l12.043-7.671c0.050-0.028 0.104-0.042 0.16-0.042s0.11 0.014 0.16 0.042l0.055 0.035c0.047 0.033 0.086 0.078 0.113 0.131s0.044 0.113 0.047 0.174v12.956c-0.003 0.061-0.019 0.121-0.047 0.174s-0.067 0.098-0.113 0.131l-12.043 7.67c-0.050 0.028-0.105 0.043-0.16 0.043s-0.111-0.015-0.16-0.043z"></path>
<path fill="#e0e0e0" style="fill: var(--color2, #e0e0e0)" d="M9.283 12.17l-0.7-0.448c-0.029 0.053-0.045 0.113-0.047 0.174v12.956c0.003 0.061 0.019 0.121 0.047 0.174s0.066 0.098 0.113 0.132l0.055 0.034c0.050 0.028 0.104 0.042 0.16 0.042s0.11-0.015 0.16-0.042l0.215-0.137-0.003-12.885z"></path>
<path fill="#ebebeb" style="fill: var(--color3, #ebebeb)" d="M8.909 25.090v-12.956c0.003-0.061 0.019-0.121 0.047-0.174s0.066-0.098 0.113-0.132l12.043-7.672c0.087-0.055 0.16-0.011 0.16 0.102v12.957c-0.003 0.061-0.019 0.121-0.047 0.174s-0.067 0.098-0.113 0.131l-12.043 7.67c-0.088 0.056-0.16 0.009-0.16-0.101z"></path>
<path fill="#fff" style="fill: var(--color6, #fff)" d="M9.857 12.281l10.465-6.665c0.11-0.071 0.199-0.013 0.199 0.127v9.988c-0.004 0.077-0.024 0.151-0.058 0.218s-0.083 0.123-0.141 0.165l-10.465 6.667c-0.11 0.071-0.199 0.013-0.199-0.127v-9.99c0.004-0.076 0.024-0.151 0.058-0.217s0.083-0.123 0.141-0.165z"></path>
<path fill="#f03e3d" style="fill: var(--color8, #f03e3d)" d="M11.587 11.784c0.652-0.415 1.18-0.079 1.18 0.752s-0.528 1.839-1.18 2.254c-0.652 0.415-1.183 0.080-1.183-0.751s0.531-1.84 1.183-2.255z"></path>
<path fill="#f03e3d" style="fill: var(--color8, #f03e3d)" d="M12.68 14.795c0.040-0.082 0.097-0.153 0.167-0.206s0.149-0.088 0.233-0.1 0.169-0.003 0.249 0.027c0.080 0.031 0.152 0.082 0.211 0.149l1.362 1.562 2.584-6.993c0.038-0.103 0.101-0.191 0.183-0.256s0.178-0.103 0.278-0.111c0.1-0.008 0.2 0.016 0.289 0.068s0.162 0.13 0.213 0.226l2.075 3.964v2.606c-0.004 0.077-0.024 0.151-0.059 0.218s-0.083 0.123-0.141 0.165l-10.465 6.667c-0.11 0.071-0.199 0.013-0.199-0.127v-1.655l3.023-6.204z"></path>
<path fill="#263238" style="fill: var(--color12, #263238)" d="M10.781 24.1l1.124-0.715v1.432l-1.124-0.716z"></path>
<path fill="#263238" style="fill: var(--color12, #263238)" d="M11.905 14.095v10.468c0 0.141-0.087 0.197-0.199 0.127l-0.924-0.589-0.377 0.239 1.673 1.066c0.062 0.035 0.13 0.053 0.2 0.053s0.138-0.018 0.2-0.053l11.592-7.378c0.058-0.042 0.107-0.098 0.142-0.165s0.055-0.141 0.059-0.218v-10.946c0.002-0.075-0.014-0.15-0.047-0.215s-0.082-0.12-0.141-0.158c-0.059-0.038-0.126-0.057-0.194-0.056s-0.135 0.023-0.193 0.063l-11.589 7.381c-0.058 0.042-0.107 0.098-0.142 0.164s-0.055 0.141-0.059 0.217z"></path>
<path fill="#455a64" style="fill: var(--color10, #455a64)" d="M12.659 14.318l11.618-7.396v-0.223c0.002-0.075-0.014-0.15-0.047-0.215s-0.082-0.12-0.141-0.158c-0.059-0.038-0.126-0.057-0.194-0.056s-0.135 0.023-0.193 0.063l-11.597 7.381c-0.059 0.041-0.108 0.097-0.141 0.165l0.694 0.44z"></path>
<path fill="#37474f" style="fill: var(--color11, #37474f)" d="M24.069 6.571l-11.589 7.381c-0.058 0.042-0.107 0.098-0.142 0.165s-0.055 0.141-0.059 0.218v10.943c0 0.141 0.087 0.198 0.2 0.127l11.589-7.378c0.058-0.042 0.107-0.098 0.142-0.165s0.055-0.141 0.059-0.218v-10.946c0-0.141-0.090-0.198-0.2-0.127z"></path>
<path fill="#fafafa" style="fill: var(--color15, #fafafa)" d="M15.366 20.731c-0.022 0-0.044-0.006-0.063-0.018-0.023-0.017-0.042-0.040-0.054-0.068s-0.017-0.058-0.015-0.088v-5.32c0.003-0.069 0.021-0.137 0.053-0.197s0.076-0.111 0.129-0.149l5.676-3.615c0.022-0.019 0.049-0.030 0.077-0.033s0.056 0.005 0.080 0.020c0.024 0.015 0.044 0.039 0.056 0.066s0.016 0.059 0.012 0.089v5.32c-0.003 0.069-0.021 0.137-0.053 0.197s-0.076 0.111-0.129 0.149l-5.676 3.619c-0.028 0.017-0.060 0.026-0.093 0.026zM21.184 11.341c-0.018 0.001-0.035 0.007-0.049 0.018l-5.676 3.614c-0.040 0.029-0.073 0.068-0.097 0.114s-0.038 0.097-0.041 0.15v5.32c-0.002 0.014-0 0.027 0.004 0.040s0.012 0.024 0.021 0.033c0.012 0.005 0.024 0.006 0.036 0.004s0.024-0.008 0.033-0.016l5.676-3.615c0.040-0.029 0.073-0.068 0.097-0.114s0.038-0.097 0.041-0.149v-5.32c0.002-0.013 0-0.027-0.004-0.040s-0.012-0.024-0.021-0.033c-0.006-0.004-0.013-0.006-0.020-0.006z"></path>
<path fill="#fafafa" style="fill: var(--color15, #fafafa)" d="M16.28 16.149c-0.049 0.001-0.098-0.013-0.141-0.040-0.054-0.041-0.096-0.096-0.124-0.161s-0.039-0.137-0.032-0.208c0.009-0.184 0.058-0.363 0.141-0.522s0.2-0.295 0.339-0.395c0.051-0.045 0.113-0.073 0.178-0.078s0.13 0.011 0.187 0.047 0.102 0.091 0.129 0.156c0.028 0.065 0.037 0.138 0.026 0.209-0.009 0.184-0.057 0.363-0.141 0.522s-0.2 0.295-0.34 0.395c-0.067 0.046-0.144 0.072-0.223 0.076zM16.69 14.843c-0.065 0.003-0.128 0.025-0.183 0.063-0.126 0.092-0.232 0.215-0.307 0.36s-0.119 0.307-0.127 0.474c-0.011 0.055-0.007 0.112 0.014 0.164s0.055 0.094 0.099 0.123c0.044 0.028 0.095 0.040 0.146 0.033s0.098-0.031 0.135-0.069c0.126-0.092 0.232-0.215 0.307-0.36s0.119-0.307 0.127-0.474c0.006-0.055-0.001-0.11-0.021-0.16s-0.051-0.094-0.092-0.127c-0.030-0.019-0.064-0.028-0.098-0.027z"></path>
<path fill="#fafafa" style="fill: var(--color15, #fafafa)" d="M15.277 20.331c-0.006-0.001-0.012-0.004-0.017-0.009-0.005-0.003-0.010-0.007-0.013-0.012s-0.006-0.010-0.008-0.016c-0.002-0.006-0.002-0.012-0.002-0.018s0.002-0.012 0.005-0.018l1.68-3.639c0.025-0.055 0.062-0.103 0.107-0.139s0.097-0.061 0.152-0.071 0.112-0.006 0.165 0.012c0.053 0.018 0.102 0.050 0.142 0.093l1.661 1.764c0.004 0.004 0.007 0.010 0.009 0.015s0.003 0.012 0.003 0.018-0.001 0.012-0.003 0.018c-0.002 0.006-0.005 0.011-0.009 0.015s-0.009 0.008-0.014 0.011c-0.005 0.002-0.011 0.004-0.017 0.004s-0.011-0.001-0.017-0.004c-0.005-0.002-0.010-0.006-0.014-0.011l-1.661-1.759c-0.030-0.032-0.067-0.056-0.108-0.070s-0.083-0.017-0.125-0.009c-0.042 0.008-0.081 0.026-0.115 0.054s-0.062 0.063-0.081 0.105l-1.68 3.64c-0.004 0.008-0.010 0.015-0.017 0.019s-0.015 0.007-0.024 0.006z"></path>
<path fill="#fafafa" style="fill: var(--color15, #fafafa)" d="M18.274 17.467c-0.006 0.001-0.012 0.001-0.017 0-0.010-0.005-0.019-0.014-0.023-0.026s-0.004-0.025 0-0.036l1.301-3.317c0.023-0.060 0.060-0.113 0.107-0.153s0.103-0.066 0.161-0.076c0.059-0.010 0.119-0.002 0.174 0.021s0.105 0.062 0.143 0.112l1.183 1.577c0.004 0.005 0.007 0.010 0.008 0.016s0.002 0.012 0.002 0.018c-0.001 0.006-0.002 0.012-0.005 0.018s-0.006 0.011-0.011 0.014c-0.008 0.007-0.018 0.011-0.028 0.010s-0.020-0.004-0.028-0.011l-1.183-1.577c-0.028-0.038-0.065-0.067-0.107-0.085s-0.087-0.023-0.131-0.017-0.086 0.026-0.121 0.056c-0.035 0.030-0.063 0.069-0.081 0.114l-1.301 3.316c-0.004 0.009-0.011 0.016-0.019 0.020s-0.017 0.006-0.026 0.004z"></path>
<path fill="#ba68c8" style="fill: var(--color14, #ba68c8)" d="M22.531 8.998c-0.268 0-0.447-0.177-0.447-0.44l0.023-1.659c0-0.452 0-1.139 0.458-1.435 0.095-0.066 0.204-0.103 0.316-0.107s0.223 0.026 0.321 0.086 0.18 0.148 0.237 0.254c0.057 0.107 0.086 0.228 0.086 0.352 0 0.133-0.004 0.296-0.011 0.484-0 0.019-0.004 0.038-0.011 0.055s-0.017 0.033-0.030 0.046c-0.013 0.013-0.027 0.023-0.044 0.029s-0.033 0.009-0.050 0.008c-0.017-0.001-0.034-0.005-0.049-0.013s-0.029-0.019-0.041-0.033c-0.011-0.014-0.020-0.030-0.026-0.048s-0.008-0.037-0.008-0.055c0.006-0.181 0.011-0.344 0.011-0.472 0.001-0.073-0.017-0.145-0.051-0.208s-0.083-0.115-0.141-0.149c-0.059-0.035-0.125-0.051-0.191-0.047s-0.131 0.028-0.185 0.069c-0.303 0.191-0.328 0.67-0.328 1.184l-0.023 1.66c0 0.124 0.101 0.151 0.187 0.151 0.142-0.004 0.276-0.068 0.375-0.179s0.156-0.261 0.157-0.417l-0.010-0.655c0-0.038 0.014-0.075 0.038-0.101s0.057-0.042 0.092-0.042c0.035 0 0.068 0.015 0.092 0.042s0.038 0.063 0.038 0.101l0.009 0.656c0.001 0.233-0.082 0.457-0.231 0.622s-0.35 0.26-0.562 0.261z"></path>
<path fill="#455a64" style="fill: var(--color10, #455a64)" d="M24.483 19.192l-9.046 5.762c-0.047 0.033-0.085 0.078-0.113 0.131s-0.044 0.113-0.047 0.174v0.070c0.003 0.061 0.019 0.121 0.047 0.174s0.067 0.098 0.113 0.132l7.548 4.807c0.050 0.028 0.104 0.042 0.16 0.042s0.11-0.014 0.16-0.042l9.046-5.762c0.047-0.033 0.085-0.078 0.113-0.131s0.044-0.113 0.047-0.174v-0.071c-0.003-0.061-0.019-0.121-0.047-0.174s-0.067-0.098-0.113-0.131l-7.548-4.807c-0.050-0.028-0.104-0.042-0.16-0.042s-0.11 0.015-0.16 0.042z"></path>
<path fill="#263238" style="fill: var(--color12, #263238)" d="M15.277 25.259v0.070c0.003 0.061 0.019 0.121 0.047 0.174s0.067 0.098 0.113 0.132l7.548 4.807c0.049 0.029 0.104 0.043 0.16 0.042v-0.895l-7.493-4.771-0.214 0.137c-0.046 0.033-0.085 0.078-0.113 0.131s-0.044 0.112-0.047 0.173z"></path>
<path fill="#37474f" style="fill: var(--color11, #37474f)" d="M15.438 24.954l9.046-5.762c0.049-0.028 0.104-0.042 0.16-0.042s0.11 0.015 0.16 0.042l7.548 4.807c0.019 0.007 0.036 0.021 0.048 0.039s0.019 0.040 0.019 0.063-0.007 0.045-0.019 0.063c-0.012 0.018-0.029 0.032-0.048 0.039l-9.046 5.762c-0.050 0.028-0.104 0.042-0.16 0.042s-0.11-0.015-0.16-0.042l-7.548-4.807c-0.019-0.007-0.036-0.021-0.049-0.039s-0.019-0.040-0.019-0.063 0.007-0.045 0.019-0.063c0.012-0.018 0.029-0.032 0.049-0.039z"></path>
<path fill="#fff" style="fill: var(--color6, #fff)" d="M16.56 25.157l5.862 3.73c0.049 0.028 0.104 0.043 0.16 0.043s0.11-0.015 0.16-0.043l7.923-5.045c0.020-0.007 0.036-0.021 0.049-0.039s0.018-0.040 0.018-0.063-0.006-0.045-0.018-0.063c-0.012-0.018-0.029-0.032-0.049-0.039l-5.862-3.73c-0.050-0.027-0.104-0.042-0.16-0.042s-0.11 0.014-0.16 0.042l-7.922 5.045c-0.019 0.007-0.036 0.021-0.049 0.039s-0.019 0.040-0.019 0.063 0.006 0.045 0.019 0.063c0.012 0.018 0.029 0.032 0.049 0.039z"></path>
<path fill="#02897a" style="fill: var(--color4, #02897a)" d="M18.368 24.368c0.414-0.263 1.085-0.263 1.498 0s0.414 0.691 0 0.956c-0.414 0.266-1.085 0.263-1.498 0s-0.414-0.692 0-0.956z"></path>
<path fill="#02897a" style="fill: var(--color4, #02897a)" d="M30.666 23.641l-1.713-1.091-5.202-0.535c-0.063-0.006-0.127 0.005-0.185 0.034s-0.109 0.073-0.147 0.129c-0.038 0.056-0.062 0.122-0.071 0.192s-0 0.14 0.023 0.205l0.898 2.48-2.861-0.18c-0.056-0.004-0.112 0.007-0.163 0.030s-0.098 0.060-0.135 0.106c-0.037 0.046-0.064 0.101-0.080 0.16s-0.018 0.122-0.009 0.182l0.44 2.926 0.964 0.614c0.049 0.028 0.104 0.043 0.16 0.043s0.11-0.015 0.16-0.043l7.923-5.046c0.020-0.006 0.038-0.020 0.051-0.039s0.019-0.042 0.019-0.065c-0-0.023-0.008-0.046-0.021-0.065s-0.031-0.032-0.052-0.037z"></path>
<path fill="#ebebeb" style="fill: var(--color3, #ebebeb)" d="M30.638 16.704v-3.818l4.496-2.863v3.817l-4.496 2.864z"></path>
<path fill="#e6e6e6" style="fill: var(--color13, #e6e6e6)" d="M30.638 12.886l-5.62-3.579v3.818l5.62 3.579v-3.818z"></path>
<path fill="#f0f0f0" style="fill: var(--color17, #f0f0f0)" d="M30.638 12.886l4.629-2.949-5.754-3.665-4.628 2.95 5.753 3.664z"></path>
<path fill="#ebebeb" style="fill: var(--color3, #ebebeb)" d="M30.638 12.886v0.955l4.629-2.948v-0.956l-4.629 2.949z"></path>
<path fill="#e6e6e6" style="fill: var(--color13, #e6e6e6)" d="M30.638 13.84l4.496-2.863v0.209l-4.496 2.864v-0.21z"></path>
<path fill="#ebebeb" style="fill: var(--color3, #ebebeb)" d="M24.885 9.221l5.753 3.664v0.955l-5.753-3.664v-0.955z"></path>
<path fill="#e0e0e0" style="fill: var(--color2, #e0e0e0)" opacity="0.5" d="M30.638 13.84l-5.62-3.579v0.21l5.62 3.579v-0.21z"></path>
<path fill="#e0e0e0" style="fill: var(--color2, #e0e0e0)" d="M32.118 13.466l1.536-0.978c0.066-0.042 0.12-0.008 0.12 0.077v1.001c-0.002 0.046-0.014 0.091-0.035 0.131s-0.050 0.074-0.085 0.099l-1.536 0.979c-0.067 0.042-0.12 0.009-0.12-0.076v-1.004c0.002-0.046 0.014-0.091 0.035-0.13s0.050-0.073 0.085-0.098z"></path>
<path fill="#fff" style="fill: var(--color6, #fff)" d="M32.216 13.58l1.339-0.853c0.044-0.028 0.081-0.005 0.081 0.051v0.754c-0.001 0.031-0.009 0.061-0.023 0.087s-0.034 0.049-0.057 0.066l-1.339 0.853c-0.044 0.028-0.080 0-0.080-0.052v-0.754c0.001-0.030 0.009-0.060 0.023-0.087s0.033-0.049 0.057-0.065z"></path>
<path fill="#ebebeb" style="fill: var(--color3, #ebebeb)" d="M30.638 12.406v-3.818l4.496-2.864v3.818l-4.496 2.864z"></path>
<path fill="#e6e6e6" style="fill: var(--color13, #e6e6e6)" d="M30.638 8.588l-5.62-3.579v3.818l5.62 3.579v-3.818z"></path>
<path fill="#f5f5f5" style="fill: var(--color1, #f5f5f5)" d="M30.638 8.588l4.629-2.95-5.754-3.664-4.628 2.949 5.753 3.665z"></path>
<path fill="#ebebeb" style="fill: var(--color3, #ebebeb)" d="M30.638 8.588v0.955l4.629-2.948v-0.956l-4.629 2.95z"></path>
<path fill="#e6e6e6" style="fill: var(--color13, #e6e6e6)" d="M30.638 9.543l4.496-2.864v0.21l-4.496 2.863v-0.209z"></path>
<path fill="#ebebeb" style="fill: var(--color3, #ebebeb)" d="M24.885 4.923l5.753 3.665v0.955l-5.753-3.664v-0.956z"></path>
<path fill="#e0e0e0" style="fill: var(--color2, #e0e0e0)" opacity="0.5" d="M30.638 9.543l-5.62-3.579v0.209l5.62 3.579v-0.209z"></path>
<path fill="#e0e0e0" style="fill: var(--color2, #e0e0e0)" d="M32.118 9.169l1.536-0.978c0.066-0.042 0.12-0.008 0.12 0.077v1.001c-0.002 0.046-0.014 0.091-0.035 0.13s-0.050 0.074-0.084 0.099l-1.536 0.978c-0.067 0.042-0.12 0.008-0.12-0.077v-1.001c0.002-0.046 0.014-0.091 0.035-0.13s0.050-0.073 0.085-0.098z"></path>
<path fill="#fff" style="fill: var(--color6, #fff)" d="M32.216 9.282l1.339-0.852c0.044-0.028 0.081-0.006 0.081 0.051v0.747c-0.002 0.031-0.010 0.060-0.024 0.087s-0.034 0.049-0.057 0.066l-1.339 0.852c-0.044 0.029-0.080 0.006-0.080-0.051v-0.751c0.002-0.030 0.010-0.059 0.024-0.085s0.033-0.048 0.056-0.064z"></path>
<path fill="#e0e0e0" style="fill: var(--color2, #e0e0e0)" d="M34.891 9.697l-4.253 2.71-5.377-3.427-0.132 0.086 5.509 3.497 4.386-2.781-0.133-0.084z"></path>
</symbol>
<symbol id="icon-click" viewBox="0 0 39 32">
<path d="M38.808 1.462c-0.769-0.785-2.016-0.785-2.785 0l-23.593 24.095-9.069-9.262c-0.769-0.785-2.016-0.785-2.785 0s-0.769 2.059 0 2.844l10.461 10.683c0.769 0.785 2.016 0.785 2.785 0l24.985-25.516c0.769-0.785 0.769-2.059 0-2.844z"></path>
</symbol>
</defs>
</svg>
